<?xml version="1.0" encoding="UTF-8"?><svg id="a" xmlns="http://www.w3.org/2000/svg" viewBox="0 0 275 50"><path d="m28.59,1.76c-.52-1.07-1.61-1.76-2.81-1.76s-2.28.68-2.81,1.76l-6.28,12.92-14.02,2.07c-1.17.18-2.15,1-2.51,2.12s-.07,2.36.77,3.19l10.17,10.07-2.4,14.23c-.2,1.17.29,2.36,1.26,3.06s2.25.78,3.3.22l12.53-6.69,12.53,6.69c1.05.56,2.33.48,3.3-.22s1.45-1.88,1.26-3.06l-2.41-14.23,10.17-10.07c.84-.83,1.14-2.07.77-3.19s-1.34-1.94-2.51-2.12l-14.03-2.07L28.59,1.76Z" fill="#8c8b8b"/><path d="m84.45,1.76c-.52-1.07-1.61-1.76-2.81-1.76s-2.28.68-2.81,1.76l-6.28,12.92-14.02,2.07c-1.17.18-2.15,1-2.51,2.12s-.07,2.36.77,3.19l10.17,10.07-2.4,14.23c-.2,1.17.29,2.36,1.26,3.06s2.25.78,3.3.22l12.53-6.69,12.53,6.69c1.05.56,2.33.48,3.3-.22s1.45-1.88,1.26-3.06l-2.41-14.23,10.17-10.07c.84-.83,1.14-2.07.77-3.19s-1.34-1.94-2.51-2.12l-14.03-2.07-6.28-12.92Z" fill="#8c8b8b"/><path d="m140.31,1.76c-.52-1.07-1.61-1.76-2.81-1.76s-2.28.68-2.81,1.76l-6.28,12.92-14.02,2.07c-1.17.18-2.15,1-2.51,2.12s-.07,2.36.77,3.19l10.17,10.07-2.4,14.23c-.2,1.17.29,2.36,1.26,3.06s2.25.78,3.3.22l12.53-6.69,12.53,6.69c1.05.56,2.33.48,3.3-.22s1.45-1.88,1.26-3.06l-2.41-14.23,10.17-10.07c.84-.83,1.14-2.07.77-3.19s-1.34-1.94-2.51-2.12l-14.03-2.07-6.28-12.92Z" fill="#a98551"/><path d="m196.16,1.76c-.52-1.07-1.61-1.76-2.81-1.76s-2.28.68-2.81,1.76l-6.28,12.92-14.02,2.07c-1.17.18-2.15,1-2.51,2.12s-.07,2.36.77,3.19l10.17,10.07-2.4,14.23c-.2,1.17.29,2.36,1.26,3.06s2.25.78,3.3.22l12.53-6.69,12.53,6.69c1.05.56,2.33.48,3.3-.22s1.45-1.88,1.26-3.06l-2.41-14.23,10.17-10.07c.84-.83,1.14-2.07.77-3.19s-1.34-1.94-2.51-2.12l-14.03-2.07-6.28-12.92Z" fill="#a98551"/><path d="m252.02,1.76c-.52-1.07-1.61-1.76-2.81-1.76s-2.28.68-2.81,1.76l-6.28,12.92-14.02,2.07c-1.17.18-2.15,1-2.51,2.12s-.07,2.36.77,3.19l10.17,10.07-2.4,14.23c-.2,1.17.29,2.36,1.26,3.06s2.25.78,3.3.22l12.53-6.69,12.53,6.69c1.05.56,2.33.48,3.3-.22s1.45-1.88,1.26-3.06l-2.41-14.23,10.17-10.07c.84-.83,1.14-2.07.77-3.19s-1.34-1.94-2.51-2.12l-14.03-2.07-6.28-12.92Z" fill="#a98551"/></svg>