<?xml version="1.0" encoding="UTF-8"?><svg id="a" xmlns="http://www.w3.org/2000/svg" viewBox="0 0 2160 1200"><rect width="2159.99" height="1200" fill="#002c49"/><path d="M66.67,0h-6.67c0,33.14-26.86,60-60,60v6.67c36.82,0,66.67-29.85,66.67-66.67Z" fill="#04364f"/><path d="M33.33,0h-6.67c0,14.73-11.93,26.67-26.66,26.67v6.67C18.41,33.34,33.33,18.42,33.33,0h0Z" fill="#04364f"/><path d="M113.33,200c0,36.82,29.85,66.67,66.67,66.67s66.67-29.85,66.67-66.67-29.85-66.67-66.67-66.67-66.67,29.85-66.67,66.67h0Zm126.67,0c0,33.14-26.86,60-60,60s-60-26.86-60-60,26.86-60,60-60,60,26.86,60,60Z" fill="#04364f"/><path d="M146.67,200c0,18.41,14.92,33.33,33.33,33.33s33.33-14.92,33.33-33.33-14.92-33.33-33.33-33.33-33.33,14.92-33.33,33.33Zm60,0c0,14.73-11.94,26.67-26.67,26.67s-26.67-11.94-26.67-26.67,11.94-26.67,26.67-26.67,26.67,11.94,26.67,26.67Z" fill="#04364f"/><path d="M360,66.67c36.82,0,66.67-29.85,66.67-66.67h-6.67c0,33.14-26.86,60-60,60s-60-26.86-60-60h-6.67c0,36.82,29.85,66.67,66.67,66.67h0Z" fill="#04364f"/><path d="M360,33.33c18.41,0,33.33-14.92,33.33-33.33h-6.67c0,14.73-11.94,26.67-26.67,26.67s-26.67-11.94-26.67-26.67h-6.67c0,18.41,14.92,33.33,33.33,33.33h.02Z" fill="#04364f"/><path d="M473.33,200c0,36.82,29.85,66.67,66.67,66.67s66.67-29.85,66.67-66.67-29.85-66.67-66.67-66.67-66.67,29.85-66.67,66.67h0Zm126.67,0c0,33.14-26.86,60-60,60s-60-26.86-60-60,26.86-60,60-60,60,26.86,60,60Z" fill="#04364f"/><path d="M506.67,200c0,18.41,14.92,33.33,33.33,33.33s33.33-14.92,33.33-33.33-14.92-33.33-33.33-33.33-33.33,14.92-33.33,33.33h0Zm60,0c0,14.73-11.94,26.67-26.67,26.67s-26.67-11.94-26.67-26.67,11.94-26.67,26.67-26.67,26.67,11.94,26.67,26.67Z" fill="#04364f"/><path d="M720,66.67c36.82,0,66.67-29.85,66.67-66.67h-6.67c0,33.14-26.86,60-60,60s-60-26.86-60-60h-6.67c0,36.82,29.85,66.67,66.67,66.67Z" fill="#04364f"/><path d="M720,33.33c18.41,0,33.33-14.92,33.33-33.33h-6.67c0,14.73-11.94,26.67-26.67,26.67s-26.67-11.94-26.67-26.67h-6.67c0,18.41,14.92,33.33,33.33,33.33h.02Z" fill="#04364f"/><path d="M833.33,200c0,36.82,29.85,66.67,66.67,66.67s66.67-29.85,66.67-66.67-29.85-66.67-66.67-66.67-66.67,29.85-66.67,66.67h0Zm126.67,0c0,33.14-26.86,60-60,60s-60-26.86-60-60,26.86-60,60-60,60,26.86,60,60Z" fill="#04364f"/><path d="M866.67,200c0,18.41,14.92,33.33,33.33,33.33s33.33-14.92,33.33-33.33-14.92-33.33-33.33-33.33-33.33,14.92-33.33,33.33Zm60,0c0,14.73-11.94,26.67-26.67,26.67s-26.67-11.94-26.67-26.67,11.94-26.67,26.67-26.67,26.67,11.94,26.67,26.67Z" fill="#04364f"/><path d="M1080,66.67c36.82,0,66.67-29.85,66.67-66.67h-6.67c0,33.14-26.86,60-60,60s-60-26.86-60-60h-6.67c0,36.82,29.85,66.67,66.67,66.67Z" fill="#04364f"/><path d="M1080,33.33c18.41,0,33.33-14.92,33.33-33.33h-6.67c0,14.73-11.94,26.67-26.67,26.67s-26.67-11.94-26.67-26.67h-6.67c0,18.41,14.92,33.33,33.33,33.33h.02Z" fill="#04364f"/><path d="M1193.33,200c0,36.82,29.85,66.67,66.67,66.67s66.67-29.85,66.67-66.67-29.85-66.67-66.67-66.67-66.67,29.85-66.67,66.67h0Zm126.67,0c0,33.14-26.86,60-60,60s-60-26.86-60-60,26.86-60,60-60,60,26.86,60,60Z" fill="#04364f"/><path d="M1226.67,200c0,18.41,14.92,33.33,33.33,33.33s33.33-14.92,33.33-33.33-14.92-33.33-33.33-33.33-33.33,14.92-33.33,33.33Zm60,0c0,14.73-11.94,26.67-26.67,26.67s-26.67-11.94-26.67-26.67,11.94-26.67,26.67-26.67,26.67,11.94,26.67,26.67Z" fill="#04364f"/><path d="M1440,66.67c36.82,0,66.67-29.85,66.67-66.67h-6.67c0,33.14-26.86,60-60,60s-60-26.86-60-60h-6.67c0,36.82,29.85,66.67,66.67,66.67Z" fill="#04364f"/><path d="M1440,33.33c18.41,0,33.33-14.92,33.33-33.33h-6.67c0,14.73-11.94,26.67-26.67,26.67s-26.67-11.94-26.67-26.67h-6.67c0,18.41,14.92,33.33,33.33,33.33h.02Z" fill="#04364f"/><path d="M1553.33,200c0,36.82,29.85,66.67,66.67,66.67s66.67-29.85,66.67-66.67-29.85-66.67-66.67-66.67-66.67,29.85-66.67,66.67h0Zm126.67,0c0,33.14-26.86,60-60,60s-60-26.86-60-60,26.86-60,60-60,60,26.86,60,60Z" fill="#04364f"/><path d="M1586.67,200c0,18.41,14.92,33.33,33.33,33.33s33.33-14.92,33.33-33.33-14.92-33.33-33.33-33.33-33.33,14.92-33.33,33.33Zm60,0c0,14.73-11.94,26.67-26.67,26.67s-26.67-11.94-26.67-26.67,11.94-26.67,26.67-26.67,26.67,11.94,26.67,26.67Z" fill="#04364f"/><path d="M1800,66.67c36.82,0,66.67-29.85,66.67-66.67h-6.67c0,33.14-26.86,60-60,60s-60-26.86-60-60h-6.67c0,36.82,29.85,66.67,66.67,66.67Z" fill="#04364f"/><path d="M1800,33.33c18.41,0,33.33-14.92,33.33-33.33h-6.67c0,14.73-11.94,26.67-26.67,26.67s-26.67-11.94-26.67-26.67h-6.67c0,18.41,14.92,33.33,33.33,33.33h.02Z" fill="#04364f"/><path d="M1913.33,200c0,36.82,29.85,66.67,66.67,66.67s66.67-29.85,66.67-66.67-29.85-66.67-66.67-66.67-66.67,29.85-66.67,66.67h0Zm126.67,0c0,33.14-26.86,60-60,60s-60-26.86-60-60,26.86-60,60-60,60,26.86,60,60Z" fill="#04364f"/><path d="M1946.67,200c0,18.41,14.92,33.33,33.33,33.33s33.33-14.92,33.33-33.33-14.92-33.33-33.33-33.33-33.33,14.92-33.33,33.33Zm60,0c0,14.73-11.94,26.67-26.67,26.67s-26.67-11.94-26.67-26.67,11.94-26.67,26.67-26.67,26.67,11.94,26.67,26.67Z" fill="#04364f"/><path d="M2066.67,0h-6.67c0,55.23,44.77,100,100,100v-6.67c-51.55,0-93.33-41.79-93.33-93.33Z" fill="#04364f"/><path d="M2100,0h-6.67c0,36.82,29.85,66.67,66.67,66.67v-6.67c-33.14,0-60-26.86-60-60Z" fill="#04364f"/><path d="M2133.33,0h-6.67c0,18.41,14.92,33.33,33.33,33.33v-6.67c-14.73,0-26.67-11.94-26.67-26.67h0Z" fill="#04364f"/><path d="M2153.95,126.52c-67.15-3.16-120.62-58.59-120.62-126.52h-6.67c0,70.78,55.15,128.66,124.82,133.06-3.01,8.47-5.46,17.21-7.31,26.17-80.94-7.95-144.17-76.2-144.17-159.22h-6.67c0,86.28,65.56,157.25,149.58,165.8-1.49,8.66-2.41,17.52-2.75,26.53C2042.7,182.41,1966.66,100.09,1966.66,0h-6.67c0,.33-.01,.66-.01,.99-9.12,.91-18.06,2.43-26.78,4.52,.07-1.83,.12-3.67,.12-5.52h-6.67c0,2.44-.08,4.86-.21,7.26-9.63,2.67-18.97,6.04-27.95,10.05,.98-5.62,1.5-11.41,1.5-17.31h-6.67c0,7.17-.81,14.16-2.34,20.87-32.67,16.27-60.27,41.19-79.77,71.79-3.68,.44-7.42,.67-11.22,.67C1748.44,93.33,1706.66,51.54,1706.66,0h-6.67c0,55.23,44.77,100,100,100,2.32,0,4.62-.09,6.91-.24-4.96,8.54-9.3,17.48-12.97,26.76-67.14-3.17-120.6-58.6-120.6-126.52h-6.67c0,70.78,55.15,128.67,124.83,133.06-3.01,8.47-5.47,17.21-7.33,26.16-80.93-7.95-144.17-76.2-144.17-159.22h-6.67c0,86.28,65.57,157.25,149.59,165.8-1.49,8.66-2.42,17.52-2.76,26.52C1682.7,182.39,1606.66,100.07,1606.66,0h-6.67c0,.33-.01,.66-.01,.99-9.12,.91-18.06,2.43-26.78,4.52,.07-1.83,.12-3.67,.12-5.52h-6.67c0,2.44-.08,4.86-.21,7.26-9.63,2.67-18.97,6.04-27.95,10.05,.98-5.62,1.5-11.41,1.5-17.31h-6.67c0,7.17-.81,14.16-2.34,20.87-32.67,16.27-60.27,41.19-79.77,71.79-3.68,.44-7.42,.67-11.22,.67-51.55,0-93.33-41.79-93.33-93.33h-6.67c0,55.23,44.77,100,100,100,2.32,0,4.62-.09,6.91-.24-4.96,8.54-9.3,17.48-12.97,26.76-67.14-3.17-120.6-58.6-120.6-126.52h-6.67c0,70.78,55.15,128.67,124.83,133.06-3.01,8.47-5.47,17.21-7.33,26.16-80.93-7.95-144.17-76.2-144.17-159.22h-6.67c0,86.28,65.57,157.25,149.59,165.8-1.49,8.66-2.42,17.52-2.76,26.52-97.45-9.93-173.49-92.25-173.49-192.33h-6.67c0,.33-.01,.66-.01,.99-9.12,.91-18.06,2.43-26.78,4.52,.07-1.83,.12-3.67,.12-5.52h-6.67c0,2.44-.08,4.86-.21,7.26-9.63,2.67-18.97,6.04-27.95,10.05,.98-5.62,1.5-11.41,1.5-17.31h-6.67c0,7.17-.81,14.16-2.34,20.87-32.67,16.27-60.27,41.19-79.77,71.79-3.68,.44-7.42,.67-11.22,.67-51.55,0-93.33-41.79-93.33-93.33h-6.67c0,55.23,44.77,100,100,100,2.32,0,4.62-.09,6.91-.24-4.96,8.54-9.3,17.48-12.97,26.76-67.14-3.17-120.6-58.6-120.6-126.52h-6.67c0,70.78,55.15,128.67,124.83,133.06-3.01,8.47-5.47,17.21-7.33,26.16C983.23,151.23,919.99,82.98,919.99-.04h-6.67c0,86.28,65.57,157.25,149.59,165.8-1.49,8.66-2.42,17.52-2.76,26.52C962.7,182.35,886.66,100.03,886.66-.05h-6.67c0,.33-.01,.66-.01,.99-9.12,.91-18.06,2.43-26.78,4.52,.07-1.83,.12-3.67,.12-5.52h-6.67c0,2.44-.08,4.86-.21,7.26-9.63,2.67-18.97,6.04-27.95,10.05,.98-5.62,1.5-11.41,1.5-17.31h-6.67c0,7.17-.81,14.16-2.34,20.87-32.67,16.27-60.27,41.19-79.77,71.79-3.68,.44-7.42,.67-11.22,.67-51.55,0-93.33-41.79-93.33-93.33h-6.67c0,55.23,44.77,100,100,100,2.32,0,4.62-.09,6.91-.24-4.96,8.54-9.3,17.48-12.97,26.76-67.14-3.17-120.6-58.6-120.6-126.52h-6.67c0,70.78,55.15,128.67,124.83,133.06-3.01,8.47-5.47,17.21-7.33,26.16C623.23,151.21,559.99,82.96,559.99-.06h-6.67c0,86.28,65.57,157.25,149.59,165.8-1.49,8.66-2.42,17.52-2.76,26.52C602.7,182.33,526.66,100.01,526.66-.07h-6.67c0,.33-.01,.66-.01,.99-9.12,.91-18.06,2.43-26.78,4.52,.07-1.83,.12-3.67,.12-5.52h-6.67c0,2.44-.08,4.86-.21,7.26-9.63,2.67-18.97,6.04-27.95,10.05,.98-5.62,1.5-11.41,1.5-17.31h-6.67c0,7.17-.81,14.16-2.34,20.87-32.67,16.27-60.27,41.19-79.77,71.79-3.68,.44-7.42,.67-11.22,.67-51.55,0-93.33-41.79-93.33-93.33h-6.67c0,55.23,44.77,100,100,100,2.32,0,4.62-.09,6.91-.24-4.96,8.54-9.3,17.48-12.97,26.76C286.79,123.27,233.33,67.84,233.33-.08h-6.67c0,70.78,55.15,128.67,124.83,133.06-3.01,8.47-5.47,17.21-7.33,26.16C263.23,151.27,200,83.02,200,0h-6.67c0,86.28,65.57,157.25,149.59,165.8-1.49,8.66-2.42,17.52-2.76,26.52C242.71,182.39,166.67,100.08,166.67,0h-6.67c0,.33,0,.66,0,1-9.12,.91-18.06,2.42-26.78,4.51,.07-1.83,.12-3.66,.12-5.5h-6.67c0,2.43-.08,4.85-.21,7.25-9.63,2.67-18.97,6.05-27.95,10.06,.98-5.62,1.5-11.41,1.5-17.31h-6.67c0,7.17-.81,14.15-2.34,20.86C58.32,37.12,30.73,62.06,11.23,92.66c-3.68,.44-7.43,.68-11.23,.68v6.67c2.32,0,4.63-.09,6.91-.24-2.46,4.23-4.76,8.56-6.91,12.97v16.58C25.91,63.38,87,15.14,160.16,7.68c.34,9,1.27,17.86,2.76,26.52C78.9,42.75,13.33,113.72,13.33,200c0,24.95-4.73,48.79-13.33,70.69v16.58c2.19-4.5,4.2-9.1,6.05-13.79,67.15,3.16,120.62,58.59,120.62,126.52,0,2.43-.08,4.85-.21,7.25-9.63,2.67-18.97,6.05-27.95,10.06,.98-5.62,1.5-11.41,1.5-17.31,0-55.23-44.77-100-100-100v6.67c51.55,0,93.33,41.79,93.33,93.33,0,7.17-.81,14.15-2.34,20.86-32.67,16.27-60.26,41.21-79.76,71.8-3.68,.44-7.43,.68-11.23,.68v6.67c2.32,0,4.63-.09,6.91-.24-2.46,4.23-4.76,8.56-6.91,12.97v16.58c25.91-65.93,87-114.17,160.16-121.63,.34,9,1.27,17.86,2.76,26.52-84.03,8.55-149.59,79.52-149.59,165.8,0,24.95-4.73,48.79-13.33,70.69v16.58c2.19-4.5,4.2-9.1,6.05-13.79,67.15,3.16,120.62,58.59,120.62,126.52,0,2.43-.08,4.85-.21,7.25-9.63,2.67-18.97,6.05-27.95,10.06,.98-5.62,1.5-11.41,1.5-17.31,0-55.23-44.77-100-100-100v6.67c51.55,0,93.33,41.79,93.33,93.33,0,7.17-.81,14.15-2.34,20.86-32.67,16.27-60.26,41.2-79.76,71.8-3.68,.44-7.43,.68-11.23,.68v6.67c2.32,0,4.63-.09,6.91-.24-2.46,4.23-4.76,8.56-6.91,12.97v16.58c25.91-65.93,87-114.17,160.16-121.63,.34,9,1.27,17.86,2.76,26.52-84.03,8.55-149.59,79.52-149.59,165.8,0,24.95-4.73,48.79-13.33,70.69v16.58c2.19-4.5,4.2-9.1,6.05-13.79,67.15,3.16,120.62,58.59,120.62,126.52h6.67c0-70.78-55.15-128.66-124.82-133.06,3.01-8.47,5.46-17.21,7.31-26.17,80.94,7.95,144.17,76.2,144.17,159.22h6.67c0-86.28-65.56-157.25-149.58-165.8,1.49-8.66,2.41-17.52,2.75-26.53,97.46,9.93,173.5,92.25,173.5,192.33h6.67c0-.33,0-.66,0-.99,9.12-.91,18.06-2.43,26.78-4.52-.07,1.83-.12,3.67-.12,5.52h6.67c0-2.44,.08-4.86,.21-7.26,9.63-2.67,18.97-6.04,27.95-10.05-.98,5.62-1.5,11.41-1.5,17.31h6.67c0-7.17,.81-14.16,2.34-20.87,32.67-16.27,60.27-41.19,79.77-71.79,3.68-.44,7.42-.67,11.22-.67,51.55,0,93.33,41.79,93.33,93.33h6.67c0-55.23-44.77-100-100-100-2.32,0-4.62,.09-6.91,.24,4.96-8.54,9.3-17.48,12.97-26.76,67.14,3.17,120.6,58.6,120.6,126.52h6.67c0-70.78-55.15-128.67-124.83-133.06,3.01-8.47,5.47-17.21,7.33-26.16,80.93,7.95,144.17,76.2,144.17,159.22h6.67c0-86.28-65.57-157.25-149.59-165.8,1.49-8.66,2.42-17.52,2.76-26.52,97.45,9.93,173.49,92.25,173.49,192.33h6.67c0-.33,.01-.66,.01-.99,9.12-.91,18.06-2.43,26.78-4.52-.07,1.83-.12,3.67-.12,5.52h6.67c0-2.44,.08-4.86,.21-7.26,9.63-2.67,18.97-6.04,27.95-10.05-.98,5.62-1.5,11.41-1.5,17.31h6.67c0-7.17,.81-14.16,2.34-20.87,32.67-16.27,60.27-41.19,79.77-71.79,3.68-.44,7.42-.67,11.22-.67,51.55,0,93.33,41.79,93.33,93.33h6.67c0-55.23-44.77-100-100-100-2.32,0-4.62,.09-6.91,.24,4.96-8.54,9.3-17.48,12.97-26.76,67.14,3.17,120.6,58.6,120.6,126.52h6.67c0-70.78-55.15-128.67-124.83-133.06,3.01-8.47,5.47-17.21,7.33-26.16,80.93,7.95,144.17,76.2,144.17,159.22h6.67c0-86.28-65.57-157.25-149.59-165.8,1.49-8.66,2.42-17.52,2.76-26.52,97.45,9.93,173.49,92.25,173.49,192.33h6.67c0-.33,.01-.66,.01-.99,9.12-.91,18.06-2.43,26.78-4.52-.07,1.83-.12,3.67-.12,5.52h6.67c0-2.44,.08-4.86,.21-7.26,9.63-2.67,18.97-6.04,27.95-10.05-.98,5.62-1.5,11.41-1.5,17.31h6.67c0-7.17,.81-14.16,2.34-20.87,32.67-16.27,60.27-41.19,79.77-71.79,3.68-.44,7.42-.67,11.22-.67,51.55,0,93.33,41.79,93.33,93.33h6.67c0-55.23-44.77-100-100-100-2.32,0-4.62,.09-6.91,.24,4.96-8.54,9.3-17.48,12.97-26.76,67.14,3.17,120.6,58.6,120.6,126.52h6.67c0-70.78-55.15-128.67-124.83-133.06,3.01-8.47,5.47-17.21,7.33-26.16,80.93,7.95,144.17,76.2,144.17,159.22h6.67c0-86.28-65.57-157.25-149.59-165.8,1.49-8.66,2.42-17.52,2.76-26.52,97.45,9.93,173.49,92.25,173.49,192.33h6.67c0-.33,.01-.66,.01-.99,9.12-.91,18.06-2.43,26.78-4.52-.07,1.83-.12,3.67-.12,5.52h6.67c0-2.44,.08-4.86,.21-7.26,9.63-2.67,18.97-6.04,27.95-10.05-.98,5.62-1.5,11.41-1.5,17.31h6.67c0-7.17,.81-14.16,2.34-20.87,32.67-16.27,60.27-41.19,79.77-71.79,3.68-.44,7.42-.67,11.22-.67,51.55,0,93.33,41.79,93.33,93.33h6.67c0-55.23-44.77-100-100-100-2.32,0-4.62,.09-6.91,.24,4.96-8.54,9.3-17.48,12.97-26.76,67.14,3.17,120.6,58.6,120.6,126.52h6.67c0-70.78-55.15-128.67-124.83-133.06,3.01-8.47,5.47-17.21,7.33-26.16,80.93,7.95,144.17,76.2,144.17,159.22h6.67c0-86.28-65.57-157.25-149.59-165.8,1.49-8.66,2.42-17.52,2.76-26.52,97.45,9.93,173.49,92.25,173.49,192.33h6.67c0-.33,.01-.66,.01-.99,9.12-.91,18.06-2.43,26.78-4.52-.07,1.83-.12,3.67-.12,5.52h6.67c0-2.44,.08-4.86,.21-7.26,9.63-2.67,18.97-6.04,27.95-10.05-.98,5.62-1.5,11.41-1.5,17.31h6.67c0-7.17,.81-14.16,2.34-20.87,32.67-16.27,60.27-41.19,79.77-71.79,3.68-.44,7.42-.67,11.22-.67,51.55,0,93.33,41.79,93.33,93.33h6.67c0-55.23-44.77-100-100-100-2.32,0-4.62,.09-6.91,.24,4.96-8.54,9.3-17.48,12.97-26.76,67.14,3.17,120.6,58.6,120.6,126.52h6.67c0-70.78-55.15-128.67-124.83-133.06,3.01-8.47,5.47-17.21,7.33-26.16,80.93,7.95,144.17,76.2,144.17,159.22h6.67c0-86.28-65.57-157.25-149.59-165.8,1.49-8.66,2.42-17.52,2.76-26.52,97.45,9.93,173.49,92.25,173.49,192.33h6.67c0-.33,.01-.66,.01-1,9.12-.91,18.06-2.42,26.78-4.51-.07,1.83-.12,3.66-.12,5.5h6.67c0-2.43,.08-4.85,.21-7.25,9.63-2.67,18.97-6.05,27.95-10.06-.98,5.62-1.5,11.41-1.5,17.31h6.67c0-7.17,.81-14.15,2.34-20.86,32.67-16.27,60.26-41.2,79.76-71.8,3.68-.44,7.43-.68,11.23-.68v-6.67c-2.32,0-4.63,.09-6.91,.24,2.45-4.23,4.76-8.56,6.91-12.97v-16.58c-25.91,65.93-87,114.17-160.16,121.63-.34-9-1.27-17.86-2.76-26.52,84.03-8.55,149.59-79.52,149.59-165.8,0-24.95,4.73-48.79,13.33-70.69v-16.58c-2.19,4.5-4.2,9.1-6.05,13.79-67.15-3.16-120.62-58.59-120.62-126.52,0-2.43,.08-4.85,.21-7.25,9.63-2.67,18.97-6.05,27.95-10.06-.98,5.62-1.5,11.41-1.5,17.31,0,55.23,44.77,100,100,100v-6.67c-51.55,0-93.33-41.79-93.33-93.33,0-7.17,.81-14.15,2.34-20.86,32.67-16.27,60.26-41.2,79.76-71.8,3.68-.44,7.43-.68,11.23-.68v-6.67c-2.32,0-4.63,.09-6.91,.24,2.45-4.23,4.76-8.56,6.91-12.97v-16.58c-25.91,65.93-87,114.17-160.16,121.63-.34-9-1.27-17.86-2.76-26.52,84.03-8.55,149.59-79.52,149.59-165.8,0-24.95,4.73-48.79,13.33-70.69v-16.58c-2.19,4.5-4.2,9.1-6.05,13.79-67.15-3.16-120.62-58.59-120.62-126.52,0-2.43,.08-4.85,.21-7.25,9.63-2.67,18.97-6.05,27.95-10.06-.98,5.62-1.5,11.41-1.5,17.31,0,55.23,44.77,100,100,100v-6.67c-51.55,0-93.33-41.79-93.33-93.33,0-7.17,.81-14.15,2.34-20.86,32.67-16.27,60.26-41.2,79.76-71.8,3.68-.44,7.43-.68,11.23-.68v-6.67c-2.32,0-4.63,.09-6.91,.24,2.45-4.23,4.76-8.56,6.91-12.97v-16.58c-25.91,65.93-87,114.17-160.16,121.63-.34-9-1.27-17.86-2.76-26.52,84.03-8.55,149.59-79.52,149.59-165.8,0-24.95,4.73-48.79,13.33-70.69v-16.58c-2.19,4.5-4.2,9.1-6.05,13.79v-.07Zm-47.51,66.22c.14,2.4,.21,4.82,.21,7.26,0,67.92-53.46,123.35-120.6,126.52-3.67-9.28-8.02-18.22-12.97-26.76,2.28,.16,4.58,.24,6.91,.24,55.23,0,100-44.77,100-100,0-5.91-.52-11.69-1.5-17.31,8.99,4.01,18.32,7.38,27.95,10.05h0Zm-113.12,207.26c0,86.28,65.56,157.25,149.58,165.8-1.49,8.66-2.41,17.52-2.75,26.53-97.46-9.93-173.5-92.25-173.5-192.33,0-86.28-65.57-157.25-149.59-165.8,1.49-8.66,2.42-17.52,2.76-26.52,97.45,9.93,173.49,92.25,173.49,192.33h.01Zm113.33,199.99c0,67.92-53.46,123.35-120.6,126.52-3.67-9.28-8.02-18.22-12.97-26.76,2.28,.16,4.58,.24,6.91,.24,55.23,0,100-44.77,100-100,0-5.91-.52-11.69-1.5-17.31,8.99,4.01,18.32,7.38,27.95,10.05,.14,2.4,.21,4.82,.21,7.26Zm-113.33,200c0,86.28,65.56,157.25,149.58,165.8-1.49,8.66-2.41,17.52-2.75,26.53-97.46-9.93-173.5-92.25-173.5-192.33,0-86.28-65.57-157.25-149.59-165.8,1.49-8.66,2.42-17.52,2.76-26.52,97.45,9.93,173.49,92.25,173.49,192.33h.01Zm-199.4,126.51c-67.14-3.17-120.6-58.6-120.6-126.52,0-2.44,.08-4.86,.21-7.26,9.63-2.67,18.97-6.04,27.95-10.05-.98,5.62-1.5,11.41-1.5,17.31,0,55.23,44.77,100,100,100,2.32,0,4.62-.09,6.91-.24-4.96,8.54-9.3,17.48-12.97,26.76Zm-187.27-126.52c0-86.28-65.57-157.25-149.59-165.8,1.49-8.66,2.42-17.52,2.76-26.52,97.45,9.93,173.49,92.25,173.49,192.33,0,86.28,65.57,157.25,149.59,165.8-1.49,8.66-2.42,17.52-2.76,26.52-97.45-9.93-173.49-92.25-173.49-192.33Zm-172.73,126.52c-67.14-3.17-120.6-58.6-120.6-126.52,0-2.44,.08-4.86,.21-7.26,9.63-2.67,18.97-6.04,27.95-10.05-.98,5.62-1.5,11.41-1.5,17.31,0,55.23,44.77,100,100,100,2.32,0,4.62-.09,6.91-.24-4.96,8.54-9.3,17.48-12.97,26.76Zm-187.27-126.52c0-86.28-65.57-157.25-149.59-165.8,1.49-8.66,2.42-17.52,2.76-26.52,97.45,9.93,173.49,92.25,173.49,192.33,0,86.28,65.57,157.25,149.59,165.8-1.49,8.66-2.42,17.52-2.76,26.52-97.45-9.93-173.49-92.25-173.49-192.33Zm-172.73,126.52c-67.14-3.17-120.6-58.6-120.6-126.52,0-2.44,.08-4.86,.21-7.26,9.63-2.67,18.97-6.04,27.95-10.05-.98,5.62-1.5,11.41-1.5,17.31,0,55.23,44.77,100,100,100,2.32,0,4.62-.09,6.91-.24-4.96,8.54-9.3,17.48-12.97,26.76h0Zm-187.27-126.52c0-86.28-65.57-157.25-149.59-165.8,1.49-8.66,2.42-17.52,2.76-26.52,97.45,9.93,173.49,92.25,173.49,192.33,0,86.28,65.57,157.25,149.59,165.8-1.49,8.66-2.42,17.52-2.76,26.52-97.45-9.93-173.49-92.25-173.49-192.33Zm-172.73,126.52c-67.14-3.17-120.6-58.6-120.6-126.52,0-2.44,.08-4.86,.21-7.26,9.63-2.67,18.97-6.04,27.95-10.05-.98,5.62-1.5,11.41-1.5,17.31,0,55.23,44.77,100,100,100,2.32,0,4.62-.09,6.91-.24-4.96,8.54-9.3,17.48-12.97,26.76h0Zm-187.27-126.52c0-86.28-65.57-157.25-149.59-165.8,1.49-8.66,2.42-17.52,2.76-26.52,97.45,9.93,173.49,92.25,173.49,192.33,0,86.28,65.57,157.25,149.59,165.8-1.49,8.66-2.42,17.52-2.76,26.52-97.45-9.93-173.49-92.25-173.49-192.33Zm-172.73,126.52c-67.14-3.17-120.6-58.6-120.6-126.52,0-2.44,.08-4.86,.21-7.26,9.63-2.67,18.97-6.04,27.95-10.05-.98,5.62-1.5,11.41-1.5,17.31,0,55.23,44.77,100,100,100,2.32,0,4.62-.09,6.91-.24-4.96,8.54-9.3,17.48-12.97,26.76Zm-187.27-126.52c0-86.28-65.56-157.25-149.58-165.8,1.49-8.66,2.41-17.52,2.75-26.53,97.46,9.93,173.5,92.25,173.5,192.33,0,86.28,65.57,157.25,149.59,165.8-1.49,8.66-2.42,17.52-2.76,26.52-97.45-9.93-173.49-92.25-173.49-192.33h0Zm-113.33-199.99c0-67.92,53.46-123.35,120.6-126.52,3.67,9.28,8.02,18.22,12.97,26.76-2.28-.16-4.58-.24-6.91-.24-55.23,0-100,44.77-100,100,0,5.91,.52,11.69,1.5,17.31-8.99-4.01-18.32-7.38-27.95-10.05-.14-2.4-.21-4.82-.21-7.26Zm113.33-200c0-86.28-65.56-157.25-149.58-165.8,1.49-8.66,2.41-17.52,2.75-26.53,97.46,9.93,173.5,92.25,173.5,192.33,0,86.28,65.57,157.25,149.59,165.8-1.49,8.66-2.42,17.52-2.76,26.52-97.45-9.93-173.49-92.25-173.49-192.33h0Zm199.4-126.51c67.14,3.17,120.6,58.6,120.6,126.52,0,2.44-.08,4.86-.21,7.26-9.63,2.67-18.97,6.04-27.95,10.05,.98-5.62,1.5-11.41,1.5-17.31,0-55.23-44.77-100-100-100-2.32,0-4.62,.09-6.91,.24,4.96-8.54,9.3-17.48,12.97-26.76h0Zm187.27,126.52c0,86.28,65.57,157.25,149.59,165.8-1.49,8.66-2.42,17.52-2.76,26.52-97.45-9.93-173.49-92.25-173.49-192.33,0-86.28-65.57-157.25-149.59-165.8,1.49-8.66,2.42-17.52,2.76-26.52,97.45,9.93,173.49,92.25,173.49,192.33Zm172.73-126.52c67.14,3.17,120.6,58.6,120.6,126.52,0,2.44-.08,4.86-.21,7.26-9.63,2.67-18.97,6.04-27.95,10.05,.98-5.62,1.5-11.41,1.5-17.31,0-55.23-44.77-100-100-100-2.32,0-4.62,.09-6.91,.24,4.96-8.54,9.3-17.48,12.97-26.76h0Zm187.27,126.52c0,86.28,65.57,157.25,149.59,165.8-1.49,8.66-2.42,17.52-2.76,26.52-97.45-9.93-173.49-92.25-173.49-192.33,0-86.28-65.57-157.25-149.59-165.8,1.49-8.66,2.42-17.52,2.76-26.52,97.45,9.93,173.49,92.25,173.49,192.33Zm172.73-126.52c67.14,3.17,120.6,58.6,120.6,126.52,0,2.44-.08,4.86-.21,7.26-9.63,2.67-18.97,6.04-27.95,10.05,.98-5.62,1.5-11.41,1.5-17.31,0-55.23-44.77-100-100-100-2.32,0-4.62,.09-6.91,.24,4.96-8.54,9.3-17.48,12.97-26.76h0Zm187.27,126.52c0,86.28,65.57,157.25,149.59,165.8-1.49,8.66-2.42,17.52-2.76,26.52-97.45-9.93-173.49-92.25-173.49-192.33,0-86.28-65.57-157.25-149.59-165.8,1.49-8.66,2.42-17.52,2.76-26.52,97.45,9.93,173.49,92.25,173.49,192.33Zm172.73-126.52c67.14,3.17,120.6,58.6,120.6,126.52,0,2.44-.08,4.86-.21,7.26-9.63,2.67-18.97,6.04-27.95,10.05,.98-5.62,1.5-11.41,1.5-17.31,0-55.23-44.77-100-100-100-2.32,0-4.62,.09-6.91,.24,4.96-8.54,9.3-17.48,12.97-26.76h0Zm187.27,126.52c0,86.28,65.57,157.25,149.59,165.8-1.49,8.66-2.42,17.52-2.76,26.52-97.45-9.93-173.49-92.25-173.49-192.33,0-86.28-65.57-157.25-149.59-165.8,1.49-8.66,2.42-17.52,2.76-26.52,97.45,9.93,173.49,92.25,173.49,192.33Zm172.73-126.52c67.14,3.17,120.6,58.6,120.6,126.52,0,2.44-.08,4.86-.21,7.26-9.63,2.67-18.97,6.04-27.95,10.05,.98-5.62,1.5-11.41,1.5-17.31,0-55.23-44.77-100-100-100-2.32,0-4.62,.09-6.91,.24,4.96-8.54,9.3-17.48,12.97-26.76h0Zm153.93,126.52c0,.33-.01,.66-.01,.99-9.12,.91-18.06,2.43-26.78,4.52,.07-1.83,.12-3.67,.12-5.52,0-70.78-55.15-128.67-124.83-133.06,3.01-8.47,5.47-17.21,7.33-26.16,80.93,7.95,144.17,76.2,144.17,159.22h0Zm26.91,100.25c-2.28-.16-4.58-.24-6.91-.24-55.23,0-100,44.77-100,100,0,5.91,.52,11.69,1.5,17.31-8.99-4.01-18.32-7.38-27.95-10.05-.14-2.4-.21-4.82-.21-7.26,0-67.92,53.46-123.35,120.6-126.52,3.67,9.28,8.02,18.22,12.97,26.76h0Zm86.43,99.76c0,51.55-41.79,93.33-93.33,93.33-3.8,0-7.54-.23-11.22-.67-19.5-30.6-47.1-55.53-79.77-71.79-1.53-6.71-2.34-13.69-2.34-20.87,0-51.55,41.79-93.33,93.33-93.33,3.8,0,7.54,.23,11.22,.67,19.5,30.6,47.1,55.53,79.77,71.79,1.53,6.71,2.34,13.69,2.34,20.87h0Zm-226.67,0c0,1.85,.05,3.69,.12,5.52-8.72-2.09-17.66-3.62-26.78-4.52,0-.33-.01-.66-.01-.99,0-83.02,63.23-151.27,144.17-159.22,1.86,8.96,4.32,17.69,7.33,26.16-69.67,4.39-124.83,62.28-124.83,133.06h0Zm-206.83,192.32c-.34-9.01-1.27-17.86-2.76-26.52,84.03-8.55,149.59-79.52,149.59-165.8,0-100.08,76.04-182.39,173.49-192.33,.34,9.01,1.27,17.86,2.76,26.52-84.03,8.55-149.59,79.52-149.59,165.8,0,100.08-76.04,182.39-173.49,192.33Zm-26.75-92.57c2.28,.16,4.58,.24,6.91,.24,55.23,0,100-44.77,100-100,0-5.91-.52-11.69-1.5-17.31,8.99,4.01,18.32,7.38,27.95,10.05,.14,2.4,.21,4.82,.21,7.26,0,67.92-53.46,123.35-120.6,126.52-3.67-9.28-8.02-18.22-12.97-26.76Zm-333.25,92.57c-.34-9.01-1.27-17.86-2.76-26.52,84.03-8.55,149.59-79.52,149.59-165.8,0-100.08,76.04-182.39,173.49-192.33,.34,9.01,1.27,17.86,2.76,26.52-84.03,8.55-149.59,79.52-149.59,165.8,0,100.08-76.04,182.39-173.49,192.33Zm-26.75-92.57c2.28,.16,4.58,.24,6.91,.24,55.23,0,100-44.77,100-100,0-5.91-.52-11.69-1.5-17.31,8.99,4.01,18.32,7.38,27.95,10.05,.14,2.4,.21,4.82,.21,7.26,0,67.92-53.46,123.35-120.6,126.52-3.67-9.28-8.02-18.22-12.97-26.76Zm-333.25,92.57c-.34-9.01-1.27-17.86-2.76-26.52,84.03-8.55,149.59-79.52,149.59-165.8,0-100.08,76.04-182.39,173.49-192.33,.34,9.01,1.27,17.86,2.76,26.52-84.03,8.55-149.59,79.52-149.59,165.8,0,100.08-76.04,182.39-173.49,192.33Zm-26.75-92.57c2.28,.16,4.58,.24,6.91,.24,55.23,0,100-44.77,100-100,0-5.91-.52-11.69-1.5-17.31,8.99,4.01,18.32,7.38,27.95,10.05,.14,2.4,.21,4.82,.21,7.26,0,67.92-53.46,123.35-120.6,126.52-3.67-9.28-8.02-18.22-12.97-26.76Zm-333.25,92.57c-.34-9.01-1.27-17.86-2.76-26.52,84.03-8.55,149.59-79.52,149.59-165.8,0-100.08,76.04-182.39,173.49-192.33,.34,9.01,1.27,17.86,2.76,26.52-84.03,8.55-149.59,79.52-149.59,165.8,0,100.08-76.04,182.39-173.49,192.33Zm-26.75-92.57c2.28,.16,4.58,.24,6.91,.24,55.23,0,100-44.77,100-100,0-5.91-.52-11.69-1.5-17.31,8.99,4.01,18.32,7.38,27.95,10.05,.14,2.4,.21,4.82,.21,7.26,0,67.92-53.46,123.35-120.6,126.52-3.67-9.28-8.02-18.22-12.97-26.76h0Zm-333.25,92.57c-.34-9.01-1.27-17.86-2.76-26.52,84.03-8.55,149.59-79.52,149.59-165.8,0-100.08,76.04-182.39,173.49-192.33,.34,9.01,1.27,17.86,2.76,26.52-84.03,8.55-149.59,79.52-149.59,165.8,0,100.08-76.04,182.39-173.49,192.33h0Zm-26.75-92.57c2.28,.16,4.58,.24,6.91,.24,55.23,0,100-44.77,100-100,0-5.91-.52-11.69-1.5-17.31,8.99,4.01,18.32,7.38,27.95,10.05,.14,2.4,.21,4.82,.21,7.26,0,67.92-53.46,123.35-120.6,126.52-3.67-9.28-8.02-18.22-12.97-26.76Zm-86.43-99.76c0-51.55,41.79-93.33,93.33-93.33,3.8,0,7.54,.23,11.22,.67,19.5,30.6,47.1,55.53,79.77,71.79,1.53,6.71,2.34,13.69,2.34,20.87,0,51.55-41.79,93.33-93.33,93.33-3.8,0-7.54-.23-11.22-.67-19.5-30.6-47.1-55.53-79.77-71.79-1.53-6.71-2.34-13.69-2.34-20.87h0Zm226.67,0c0-1.85-.05-3.69-.12-5.52,8.72,2.09,17.66,3.62,26.78,4.52,0,.33,.01,.66,.01,.99,0,83.02-63.23,151.27-144.17,159.22-1.86-8.96-4.32-17.69-7.33-26.16,69.67-4.39,124.83-62.28,124.83-133.06h0Zm66.67,.01c0-83.02,63.23-151.27,144.17-159.22,1.86,8.96,4.32,17.69,7.33,26.16-69.67,4.39-124.83,62.28-124.83,133.06,0,1.85,.05,3.69,.12,5.52-8.72-2.09-17.66-3.62-26.78-4.52,0-.33-.01-.66-.01-.99h0Zm33.33-.01c0-67.92,53.46-123.35,120.6-126.52,3.67,9.28,8.02,18.22,12.97,26.76-2.28-.16-4.58-.24-6.91-.24-55.23,0-100,44.77-100,100,0,5.91,.52,11.69,1.5,17.31-8.99-4.01-18.32-7.38-27.95-10.05-.14-2.4-.21-4.82-.21-7.26h0Zm33.33,0c0-51.55,41.79-93.33,93.33-93.33,3.8,0,7.54,.23,11.22,.67,19.5,30.6,47.1,55.53,79.77,71.79,1.53,6.71,2.34,13.69,2.34,20.87,0,51.55-41.79,93.33-93.33,93.33-3.8,0-7.54-.23-11.22-.67-19.5-30.6-47.1-55.53-79.77-71.79-1.53-6.71-2.34-13.69-2.34-20.87h0Zm226.67,0c0-1.85-.05-3.69-.12-5.52,8.72,2.09,17.66,3.62,26.78,4.52,0,.33,.01,.66,.01,.99,0,83.02-63.23,151.27-144.17,159.22-1.86-8.96-4.32-17.69-7.33-26.16,69.67-4.39,124.83-62.28,124.83-133.06h0Zm66.67,.01c0-83.02,63.23-151.27,144.17-159.22,1.86,8.96,4.32,17.69,7.33,26.16-69.67,4.39-124.83,62.28-124.83,133.06,0,1.85,.05,3.69,.12,5.52-8.72-2.09-17.66-3.62-26.78-4.52,0-.33-.01-.66-.01-.99h0Zm33.33-.01c0-67.92,53.46-123.35,120.6-126.52,3.67,9.28,8.02,18.22,12.97,26.76-2.28-.16-4.58-.24-6.91-.24-55.23,0-100,44.77-100,100,0,5.91,.52,11.69,1.5,17.31-8.99-4.01-18.32-7.38-27.95-10.05-.14-2.4-.21-4.82-.21-7.26h0Zm33.33,0c0-51.55,41.79-93.33,93.33-93.33,3.8,0,7.54,.23,11.22,.67,19.5,30.6,47.1,55.53,79.77,71.79,1.53,6.71,2.34,13.69,2.34,20.87,0,51.55-41.79,93.33-93.33,93.33-3.8,0-7.54-.23-11.22-.67-19.5-30.6-47.1-55.53-79.77-71.79-1.53-6.71-2.34-13.69-2.34-20.87h0Zm226.67,0c0-1.85-.05-3.69-.12-5.52,8.72,2.09,17.66,3.62,26.78,4.52,0,.33,.01,.66,.01,.99,0,83.02-63.23,151.27-144.17,159.22-1.86-8.96-4.32-17.69-7.33-26.16,69.67-4.39,124.83-62.28,124.83-133.06h0Zm66.67,.01c0-83.02,63.23-151.27,144.17-159.22,1.86,8.96,4.32,17.69,7.33,26.16-69.67,4.39-124.83,62.28-124.83,133.06,0,1.85,.05,3.69,.12,5.52-8.72-2.09-17.66-3.62-26.78-4.52,0-.33-.01-.66-.01-.99h0Zm33.33-.01c0-67.92,53.46-123.35,120.6-126.52,3.67,9.28,8.02,18.22,12.97,26.76-2.28-.16-4.58-.24-6.91-.24-55.23,0-100,44.77-100,100,0,5.91,.52,11.69,1.5,17.31-8.99-4.01-18.32-7.38-27.95-10.05-.14-2.4-.21-4.82-.21-7.26Zm33.33,0c0-51.55,41.79-93.33,93.33-93.33,3.8,0,7.54,.23,11.22,.67,19.5,30.6,47.1,55.53,79.77,71.79,1.53,6.71,2.34,13.69,2.34,20.87,0,51.55-41.79,93.33-93.33,93.33-3.8,0-7.54-.23-11.22-.67-19.5-30.6-47.1-55.53-79.77-71.79-1.53-6.71-2.34-13.69-2.34-20.87h0Zm226.67,0c0-1.85-.05-3.69-.12-5.52,8.72,2.09,17.66,3.62,26.78,4.52,0,.33,.01,.66,.01,.99,0,83.02-63.23,151.27-144.17,159.22-1.86-8.96-4.32-17.69-7.33-26.16,69.67-4.39,124.83-62.28,124.83-133.06h0Zm66.67,.01c0-83.02,63.23-151.27,144.17-159.22,1.86,8.96,4.32,17.69,7.33,26.16-69.67,4.39-124.83,62.28-124.83,133.06,0,1.85,.05,3.69,.12,5.52-8.72-2.09-17.66-3.62-26.78-4.52,0-.33-.01-.66-.01-.99h0Zm33.33-.01c0-67.92,53.46-123.35,120.6-126.52,3.67,9.28,8.02,18.22,12.97,26.76-2.28-.16-4.58-.24-6.91-.24-55.23,0-100,44.77-100,100,0,5.91,.52,11.69,1.5,17.31-8.99-4.01-18.32-7.38-27.95-10.05-.14-2.4-.21-4.82-.21-7.26Zm33.33,0c0-51.55,41.79-93.33,93.33-93.33,3.8,0,7.54,.23,11.22,.67,19.5,30.6,47.1,55.53,79.77,71.79,1.53,6.71,2.34,13.69,2.34,20.87,0,51.55-41.79,93.33-93.33,93.33-3.8,0-7.54-.23-11.22-.67-19.5-30.6-47.1-55.53-79.77-71.79-1.53-6.71-2.34-13.69-2.34-20.87h0Zm226.67,0c0-1.85-.05-3.69-.12-5.52,8.72,2.09,17.66,3.62,26.78,4.52,0,.33,.01,.66,.01,.99,0,83.02-63.23,151.27-144.17,159.22-1.86-8.96-4.32-17.69-7.33-26.16,69.67-4.39,124.83-62.28,124.83-133.06h0Zm46.67-293.32c51.55,0,93.33,41.79,93.33,93.33,0,7.17-.81,14.16-2.34,20.87-32.67,16.27-60.27,41.19-79.77,71.79-3.68,.44-7.42,.67-11.22,.67-51.55,0-93.33-41.79-93.33-93.33,0-7.17,.81-14.16,2.34-20.87,32.67-16.27,60.27-41.19,79.77-71.79,3.68-.44,7.42-.67,11.22-.67h0Zm-100,93.33c0,55.23,44.77,100,100,100,2.32,0,4.62-.09,6.91-.24-4.96,8.54-9.3,17.48-12.97,26.76-67.14-3.17-120.6-58.6-120.6-126.52,0-2.44,.08-4.86,.21-7.26,9.63-2.67,18.97-6.04,27.95-10.05-.98,5.62-1.5,11.41-1.5,17.31h0Zm-33.33,0c0,70.78,55.15,128.67,124.83,133.06-3.01,8.47-5.47,17.21-7.33,26.16-80.93-7.95-144.17-76.2-144.17-159.22,0-.33,.01-.66,.01-.99,9.12-.91,18.06-2.43,26.78-4.52-.07,1.83-.12,3.67-.12,5.52h0Zm-66.67,0c0,.33-.01,.66-.01,.99-9.12,.91-18.06,2.43-26.78,4.52,.07-1.83,.12-3.67,.12-5.52,0-70.78-55.15-128.67-124.83-133.06,3.01-8.47,5.47-17.21,7.33-26.16,80.93,7.95,144.17,76.2,144.17,159.22h0Zm-160-93.32c51.55,0,93.33,41.79,93.33,93.33,0,7.17-.81,14.16-2.34,20.87-32.67,16.27-60.27,41.19-79.77,71.79-3.68,.44-7.42,.67-11.22,.67-51.55,0-93.33-41.79-93.33-93.33,0-7.17,.81-14.16,2.34-20.87,32.67-16.27,60.27-41.19,79.77-71.79,3.68-.44,7.42-.67,11.22-.67Zm-100,93.33c0,55.23,44.77,100,100,100,2.32,0,4.62-.09,6.91-.24-4.96,8.54-9.3,17.48-12.97,26.76-67.14-3.17-120.6-58.6-120.6-126.52,0-2.44,.08-4.86,.21-7.26,9.63-2.67,18.97-6.04,27.95-10.05-.98,5.62-1.5,11.41-1.5,17.31h0Zm-33.33,0c0,70.78,55.15,128.67,124.83,133.06-3.01,8.47-5.47,17.21-7.33,26.16-80.93-7.95-144.17-76.2-144.17-159.22,0-.33,.01-.66,.01-.99,9.12-.91,18.06-2.43,26.78-4.52-.07,1.83-.12,3.67-.12,5.52h0Zm-66.67,0c0,.33-.01,.66-.01,.99-9.12,.91-18.06,2.43-26.78,4.52,.07-1.83,.12-3.67,.12-5.52,0-70.78-55.15-128.67-124.83-133.06,3.01-8.47,5.47-17.21,7.33-26.16,80.93,7.95,144.17,76.2,144.17,159.22h0Zm-160-93.32c51.55,0,93.33,41.79,93.33,93.33,0,7.17-.81,14.16-2.34,20.87-32.67,16.27-60.27,41.19-79.77,71.79-3.68,.44-7.42,.67-11.22,.67-51.55,0-93.33-41.79-93.33-93.33,0-7.17,.81-14.16,2.34-20.87,32.67-16.27,60.27-41.19,79.77-71.79,3.68-.44,7.42-.67,11.22-.67Zm-100,93.33c0,55.23,44.77,100,100,100,2.32,0,4.62-.09,6.91-.24-4.96,8.54-9.3,17.48-12.97,26.76-67.14-3.17-120.6-58.6-120.6-126.52,0-2.44,.08-4.86,.21-7.26,9.63-2.67,18.97-6.04,27.95-10.05-.98,5.62-1.5,11.41-1.5,17.31h0Zm-33.33,0c0,70.78,55.15,128.67,124.83,133.06-3.01,8.47-5.47,17.21-7.33,26.16-80.93-7.95-144.17-76.2-144.17-159.22,0-.33,.01-.66,.01-.99,9.12-.91,18.06-2.43,26.78-4.52-.07,1.83-.12,3.67-.12,5.52h0Zm-66.67,0c0,.33-.01,.66-.01,.99-9.12,.91-18.06,2.43-26.78,4.52,.07-1.83,.12-3.67,.12-5.52,0-70.78-55.15-128.67-124.83-133.06,3.01-8.47,5.47-17.21,7.33-26.16,80.93,7.95,144.17,76.2,144.17,159.22h0Zm-160-93.32c51.55,0,93.33,41.79,93.33,93.33,0,7.17-.81,14.16-2.34,20.87-32.67,16.27-60.27,41.19-79.77,71.79-3.68,.44-7.42,.67-11.22,.67-51.55,0-93.33-41.79-93.33-93.33,0-7.17,.81-14.16,2.34-20.87,32.67-16.27,60.27-41.19,79.77-71.79,3.68-.44,7.42-.67,11.22-.67Zm-100,93.33c0,55.23,44.77,100,100,100,2.32,0,4.62-.09,6.91-.24-4.96,8.54-9.3,17.48-12.97,26.76-67.14-3.17-120.6-58.6-120.6-126.52,0-2.44,.08-4.86,.21-7.26,9.63-2.67,18.97-6.04,27.95-10.05-.98,5.62-1.5,11.41-1.5,17.31h0Zm-33.33,0c0,70.78,55.15,128.67,124.83,133.06-3.01,8.47-5.47,17.21-7.33,26.16-80.93-7.95-144.17-76.2-144.17-159.22,0-.33,.01-.66,.01-.99,9.12-.91,18.06-2.43,26.78-4.52-.07,1.83-.12,3.67-.12,5.52h0Zm-66.67,0c0,.33-.01,.66-.01,.99-9.12,.91-18.06,2.43-26.78,4.52,.07-1.83,.12-3.67,.12-5.52,0-70.78-55.15-128.67-124.83-133.06,3.01-8.47,5.47-17.21,7.33-26.16,80.93,7.95,144.17,76.2,144.17,159.22h0Zm-160-93.32c51.55,0,93.33,41.79,93.33,93.33,0,7.17-.81,14.16-2.34,20.87-32.67,16.27-60.27,41.19-79.77,71.79-3.68,.44-7.42,.67-11.22,.67-51.55,0-93.33-41.79-93.33-93.33,0-7.17,.81-14.16,2.34-20.87,32.67-16.27,60.27-41.19,79.77-71.79,3.68-.44,7.42-.67,11.22-.67h0Zm-100,93.33c0,55.23,44.77,100,100,100,2.32,0,4.62-.09,6.91-.24-4.96,8.54-9.3,17.48-12.97,26.76-67.14-3.17-120.6-58.6-120.6-126.52,0-2.44,.08-4.86,.21-7.26,9.63-2.67,18.97-6.04,27.95-10.05-.98,5.62-1.5,11.41-1.5,17.31h0Zm-33.33,0c0,70.78,55.15,128.67,124.83,133.06-3.01,8.47-5.47,17.21-7.33,26.16-80.93-7.95-144.17-76.2-144.17-159.22,0-.33,0-.66,0-.99,9.12-.91,18.06-2.43,26.78-4.52-.07,1.83-.12,3.67-.12,5.52h0Zm-26.67,399.99c0-.33,0-.66,0-.99,9.12-.91,18.06-2.43,26.78-4.52-.07,1.83-.12,3.67-.12,5.52,0,70.78,55.15,128.67,124.83,133.06-3.01,8.47-5.47,17.21-7.33,26.16-80.93-7.95-144.17-76.2-144.17-159.22h0Zm160,93.32c-51.55,0-93.33-41.79-93.33-93.33,0-7.17,.81-14.16,2.34-20.87,32.67-16.27,60.27-41.19,79.77-71.79,3.68-.44,7.42-.67,11.22-.67,51.55,0,93.33,41.79,93.33,93.33,0,7.17-.81,14.16-2.34,20.87-32.67,16.27-60.27,41.19-79.77,71.79-3.68,.44-7.42,.67-11.22,.67h0Zm100-93.33c0-55.23-44.77-100-100-100-2.32,0-4.62,.09-6.91,.24,4.96-8.54,9.3-17.48,12.97-26.76,67.14,3.17,120.6,58.6,120.6,126.52,0,2.44-.08,4.86-.21,7.26-9.63,2.67-18.97,6.04-27.95,10.05,.98-5.62,1.5-11.41,1.5-17.31Zm33.33,0c0-70.78-55.15-128.67-124.83-133.06,3.01-8.47,5.47-17.21,7.33-26.16,80.93,7.95,144.17,76.2,144.17,159.22,0,.33-.01,.66-.01,.99-9.12,.91-18.06,2.43-26.78,4.52,.07-1.83,.12-3.67,.12-5.52h0Zm66.67,.01c0-.33,.01-.66,.01-.99,9.12-.91,18.06-2.43,26.78-4.52-.07,1.83-.12,3.67-.12,5.52,0,70.78,55.15,128.67,124.83,133.06-3.01,8.47-5.47,17.21-7.33,26.16-80.93-7.95-144.17-76.2-144.17-159.22h0Zm160,93.32c-51.55,0-93.33-41.79-93.33-93.33,0-7.17,.81-14.16,2.34-20.87,32.67-16.27,60.27-41.19,79.77-71.79,3.68-.44,7.42-.67,11.22-.67,51.55,0,93.33,41.79,93.33,93.33,0,7.17-.81,14.16-2.34,20.87-32.67,16.27-60.27,41.19-79.77,71.79-3.68,.44-7.42,.67-11.22,.67Zm100-93.33c0-55.23-44.77-100-100-100-2.32,0-4.62,.09-6.91,.24,4.96-8.54,9.3-17.48,12.97-26.76,67.14,3.17,120.6,58.6,120.6,126.52,0,2.44-.08,4.86-.21,7.26-9.63,2.67-18.97,6.04-27.95,10.05,.98-5.62,1.5-11.41,1.5-17.31h0Zm33.33,0c0-70.78-55.15-128.67-124.83-133.06,3.01-8.47,5.47-17.21,7.33-26.16,80.93,7.95,144.17,76.2,144.17,159.22,0,.33-.01,.66-.01,.99-9.12,.91-18.06,2.43-26.78,4.52,.07-1.83,.12-3.67,.12-5.52h0Zm66.67,.01c0-.33,.01-.66,.01-.99,9.12-.91,18.06-2.43,26.78-4.52-.07,1.83-.12,3.67-.12,5.52,0,70.78,55.15,128.67,124.83,133.06-3.01,8.47-5.47,17.21-7.33,26.16-80.93-7.95-144.17-76.2-144.17-159.22h0Zm160,93.32c-51.55,0-93.33-41.79-93.33-93.33,0-7.17,.81-14.16,2.34-20.87,32.67-16.27,60.27-41.19,79.77-71.79,3.68-.44,7.42-.67,11.22-.67,51.55,0,93.33,41.79,93.33,93.33,0,7.17-.81,14.16-2.34,20.87-32.67,16.27-60.27,41.19-79.77,71.79-3.68,.44-7.42,.67-11.22,.67Zm100-93.33c0-55.23-44.77-100-100-100-2.32,0-4.62,.09-6.91,.24,4.96-8.54,9.3-17.48,12.97-26.76,67.14,3.17,120.6,58.6,120.6,126.52,0,2.44-.08,4.86-.21,7.26-9.63,2.67-18.97,6.04-27.95,10.05,.98-5.62,1.5-11.41,1.5-17.31Zm33.33,0c0-70.78-55.15-128.67-124.83-133.06,3.01-8.47,5.47-17.21,7.33-26.16,80.93,7.95,144.17,76.2,144.17,159.22,0,.33-.01,.66-.01,.99-9.12,.91-18.06,2.43-26.78,4.52,.07-1.83,.12-3.67,.12-5.52h0Zm66.67,.01c0-.33,.01-.66,.01-.99,9.12-.91,18.06-2.43,26.78-4.52-.07,1.83-.12,3.67-.12,5.52,0,70.78,55.15,128.67,124.83,133.06-3.01,8.47-5.47,17.21-7.33,26.16-80.93-7.95-144.17-76.2-144.17-159.22h0Zm160,93.32c-51.55,0-93.33-41.79-93.33-93.33,0-7.17,.81-14.16,2.34-20.87,32.67-16.27,60.27-41.19,79.77-71.79,3.68-.44,7.42-.67,11.22-.67,51.55,0,93.33,41.79,93.33,93.33,0,7.17-.81,14.16-2.34,20.87-32.67,16.27-60.27,41.19-79.77,71.79-3.68,.44-7.42,.67-11.22,.67Zm100-93.33c0-55.23-44.77-100-100-100-2.32,0-4.62,.09-6.91,.24,4.96-8.54,9.3-17.48,12.97-26.76,67.14,3.17,120.6,58.6,120.6,126.52,0,2.44-.08,4.86-.21,7.26-9.63,2.67-18.97,6.04-27.95,10.05,.98-5.62,1.5-11.41,1.5-17.31Zm33.33,0c0-70.78-55.15-128.67-124.83-133.06,3.01-8.47,5.47-17.21,7.33-26.16,80.93,7.95,144.17,76.2,144.17,159.22,0,.33-.01,.66-.01,.99-9.12,.91-18.06,2.43-26.78,4.52,.07-1.83,.12-3.67,.12-5.52h0Zm66.67,.01c0-.33,.01-.66,.01-.99,9.12-.91,18.06-2.43,26.78-4.52-.07,1.83-.12,3.67-.12,5.52,0,70.78,55.15,128.67,124.83,133.06-3.01,8.47-5.47,17.21-7.33,26.16-80.93-7.95-144.17-76.2-144.17-159.22h0Zm160,93.32c-51.55,0-93.33-41.79-93.33-93.33,0-7.17,.81-14.16,2.34-20.87,32.67-16.27,60.27-41.19,79.77-71.79,3.68-.44,7.42-.67,11.22-.67,51.55,0,93.33,41.79,93.33,93.33,0,7.17-.81,14.16-2.34,20.87-32.67,16.27-60.27,41.19-79.77,71.79-3.68,.44-7.42,.67-11.22,.67Zm100-93.33c0-55.23-44.77-100-100-100-2.32,0-4.62,.09-6.91,.24,4.96-8.54,9.3-17.48,12.97-26.76,67.14,3.17,120.6,58.6,120.6,126.52,0,2.44-.08,4.86-.21,7.26-9.63,2.67-18.97,6.04-27.95,10.05,.98-5.62,1.5-11.41,1.5-17.31Zm33.33,0c0-70.78-55.15-128.67-124.83-133.06,3.01-8.47,5.47-17.21,7.33-26.16,80.93,7.95,144.17,76.2,144.17,159.22,0,.33-.01,.66-.01,.99-9.12,.91-18.06,2.43-26.78,4.52,.07-1.83,.12-3.67,.12-5.52h0Zm137.66-620.86c1.53,6.71,2.34,13.69,2.34,20.87,0,51.55-41.79,93.33-93.33,93.33-3.8,0-7.54-.23-11.22-.67-19.5-30.6-47.1-55.53-79.77-71.79-1.53-6.71-2.34-13.69-2.34-20.87,0-51.55,41.79-93.33,93.33-93.33,3.8,0,7.54,.23,11.22,.67,19.5,30.6,47.1,55.53,79.77,71.79Zm-84.08-78.89c-2.28-.16-4.58-.24-6.91-.24-55.23,0-100,44.77-100,100,0,5.91,.52,11.69,1.5,17.31-8.99-4.01-18.32-7.38-27.95-10.05-.14-2.4-.21-4.82-.21-7.26,0-67.92,53.46-123.35,120.6-126.52,3.67,9.28,8.02,18.22,12.97,26.76Zm-15.41-33.3c-69.67,4.39-124.83,62.28-124.83,133.06,0,1.85,.05,3.69,.12,5.52-8.72-2.09-17.66-3.62-26.78-4.52,0-.33-.01-.66-.01-.99,0-83.02,63.23-151.27,144.17-159.22,1.86,8.96,4.32,17.69,7.33,26.16h0Zm-11.33-59.28c.34,9.01,1.27,17.86,2.76,26.52-84.03,8.55-149.59,79.52-149.59,165.8,0,100.08-76.04,182.39-173.49,192.33-.34-9.01-1.27-17.86-2.76-26.52,84.03-8.55,149.59-79.52,149.59-165.8,0-100.08,76.04-182.39,173.49-192.33h0Zm-180.17,191.33c0,.33,.01,.66,.01,.99,0,83.02-63.23,151.27-144.17,159.22-1.86-8.96-4.32-17.69-7.33-26.16,69.67-4.39,124.83-62.28,124.83-133.06,0-1.85-.05-3.69-.12-5.52,8.72,2.09,17.66,3.62,26.78,4.52h0Zm-33.53-6.26c.14,2.4,.21,4.82,.21,7.26,0,67.92-53.46,123.35-120.6,126.52-3.67-9.28-8.02-18.22-12.97-26.76,2.28,.16,4.58,.24,6.91,.24,55.23,0,100-44.77,100-100,0-5.91-.52-11.69-1.5-17.31,8.99,4.01,18.32,7.38,27.95,10.05h0Zm-35.47-13.61c1.53,6.71,2.34,13.69,2.34,20.87,0,51.55-41.79,93.33-93.33,93.33-3.8,0-7.54-.23-11.22-.67-19.5-30.6-47.1-55.53-79.77-71.79-1.53-6.71-2.34-13.69-2.34-20.87,0-51.55,41.79-93.33,93.33-93.33,3.8,0,7.54,.23,11.22,.67,19.5,30.6,47.1,55.53,79.77,71.79Zm-84.08-78.89c-2.28-.16-4.58-.24-6.91-.24-55.23,0-100,44.77-100,100,0,5.91,.52,11.69,1.5,17.31-8.99-4.01-18.32-7.38-27.95-10.05-.14-2.4-.21-4.82-.21-7.26,0-67.92,53.46-123.35,120.6-126.52,3.67,9.28,8.02,18.22,12.97,26.76Zm-15.41-33.3c-69.67,4.39-124.83,62.28-124.83,133.06,0,1.85,.05,3.69,.12,5.52-8.72-2.09-17.66-3.62-26.78-4.52,0-.33-.01-.66-.01-.99,0-83.02,63.23-151.27,144.17-159.22,1.86,8.96,4.32,17.69,7.33,26.16h0Zm-11.33-59.28c.34,9.01,1.27,17.86,2.76,26.52-84.03,8.55-149.59,79.52-149.59,165.8,0,100.08-76.04,182.39-173.49,192.33-.34-9.01-1.27-17.86-2.76-26.52,84.03-8.55,149.59-79.52,149.59-165.8,0-100.08,76.04-182.39,173.49-192.33h0Zm-180.17,191.33c0,.33,.01,.66,.01,.99,0,83.02-63.23,151.27-144.17,159.22-1.86-8.96-4.32-17.69-7.33-26.16,69.67-4.39,124.83-62.28,124.83-133.06,0-1.85-.05-3.69-.12-5.52,8.72,2.09,17.66,3.62,26.78,4.52h0Zm-33.53-6.26c.14,2.4,.21,4.82,.21,7.26,0,67.92-53.46,123.35-120.6,126.52-3.67-9.28-8.02-18.22-12.97-26.76,2.28,.16,4.58,.24,6.91,.24,55.23,0,100-44.77,100-100,0-5.91-.52-11.69-1.5-17.31,8.99,4.01,18.32,7.38,27.95,10.05h0Zm-35.47-13.61c1.53,6.71,2.34,13.69,2.34,20.87,0,51.55-41.79,93.33-93.33,93.33-3.8,0-7.54-.23-11.22-.67-19.5-30.6-47.1-55.53-79.77-71.79-1.53-6.71-2.34-13.69-2.34-20.87,0-51.55,41.79-93.33,93.33-93.33,3.8,0,7.54,.23,11.22,.67,19.5,30.6,47.1,55.53,79.77,71.79Zm-84.08-78.89c-2.28-.16-4.58-.24-6.91-.24-55.23,0-100,44.77-100,100,0,5.91,.52,11.69,1.5,17.31-8.99-4.01-18.32-7.38-27.95-10.05-.14-2.4-.21-4.82-.21-7.26,0-67.92,53.46-123.35,120.6-126.52,3.67,9.28,8.02,18.22,12.97,26.76Zm-15.41-33.3c-69.67,4.39-124.83,62.28-124.83,133.06,0,1.85,.05,3.69,.12,5.52-8.72-2.09-17.66-3.62-26.78-4.52,0-.33-.01-.66-.01-.99,0-83.02,63.23-151.27,144.17-159.22,1.86,8.96,4.32,17.69,7.33,26.16h0Zm-11.33-59.28c.34,9.01,1.27,17.86,2.76,26.52-84.03,8.55-149.59,79.52-149.59,165.8,0,100.08-76.04,182.39-173.49,192.33-.34-9.01-1.27-17.86-2.76-26.52,84.03-8.55,149.59-79.52,149.59-165.8,0-100.08,76.04-182.39,173.49-192.33h0Zm-180.17,191.33c0,.33,.01,.66,.01,.99,0,83.02-63.23,151.27-144.17,159.22-1.86-8.96-4.32-17.69-7.33-26.16,69.67-4.39,124.83-62.28,124.83-133.06,0-1.85-.05-3.69-.12-5.52,8.72,2.09,17.66,3.62,26.78,4.52h0Zm-33.53-6.26c.14,2.4,.21,4.82,.21,7.26,0,67.92-53.46,123.35-120.6,126.52-3.67-9.28-8.02-18.22-12.97-26.76,2.28,.16,4.58,.24,6.91,.24,55.23,0,100-44.77,100-100,0-5.91-.52-11.69-1.5-17.31,8.99,4.01,18.32,7.38,27.95,10.05h0Zm-35.47-13.61c1.53,6.71,2.34,13.69,2.34,20.87,0,51.55-41.79,93.33-93.33,93.33-3.8,0-7.54-.23-11.22-.67-19.5-30.6-47.1-55.53-79.77-71.79-1.53-6.71-2.34-13.69-2.34-20.87,0-51.55,41.79-93.33,93.33-93.33,3.8,0,7.54,.23,11.22,.67,19.5,30.6,47.1,55.53,79.77,71.79Zm-84.08-78.89c-2.28-.16-4.58-.24-6.91-.24-55.23,0-100,44.77-100,100,0,5.91,.52,11.69,1.5,17.31-8.99-4.01-18.32-7.38-27.95-10.05-.14-2.4-.21-4.82-.21-7.26,0-67.92,53.46-123.35,120.6-126.52,3.67,9.28,8.02,18.22,12.97,26.76h0Zm-15.41-33.3c-69.67,4.39-124.83,62.28-124.83,133.06,0,1.85,.05,3.69,.12,5.52-8.72-2.09-17.66-3.62-26.78-4.52,0-.33-.01-.66-.01-.99,0-83.02,63.23-151.27,144.17-159.22,1.86,8.96,4.32,17.69,7.33,26.16h0Zm-11.33-59.28c.34,9.01,1.27,17.86,2.76,26.52-84.03,8.55-149.59,79.52-149.59,165.8,0,100.08-76.04,182.39-173.49,192.33-.34-9.01-1.27-17.86-2.76-26.52,84.03-8.55,149.59-79.52,149.59-165.8,0-100.08,76.04-182.39,173.49-192.33h0Zm-180.17,191.33c0,.33,.01,.66,.01,.99,0,83.02-63.23,151.27-144.17,159.22-1.86-8.96-4.32-17.69-7.33-26.16,69.67-4.39,124.83-62.28,124.83-133.06,0-1.85-.05-3.69-.12-5.52,8.72,2.09,17.66,3.62,26.78,4.52h0Zm-33.53-6.26c.14,2.4,.21,4.82,.21,7.26,0,67.92-53.46,123.35-120.6,126.52-3.67-9.28-8.02-18.22-12.97-26.76,2.28,.16,4.58,.24,6.91,.24,55.23,0,100-44.77,100-100,0-5.91-.52-11.69-1.5-17.31,8.99,4.01,18.32,7.38,27.95,10.05h0Zm-35.47-13.61c1.53,6.71,2.34,13.69,2.34,20.87,0,51.55-41.79,93.33-93.33,93.33-3.8,0-7.54-.23-11.22-.67-19.5-30.6-47.1-55.53-79.77-71.79-1.53-6.71-2.34-13.69-2.34-20.87,0-51.55,41.79-93.33,93.33-93.33,3.8,0,7.54,.23,11.22,.67,19.5,30.6,47.1,55.53,79.77,71.79h0Zm-84.08-78.89c-2.28-.16-4.58-.24-6.91-.24-55.23,0-100,44.77-100,100,0,5.91,.52,11.69,1.5,17.31-8.99-4.01-18.32-7.38-27.95-10.05-.14-2.4-.21-4.82-.21-7.26,0-67.92,53.46-123.35,120.6-126.52,3.67,9.28,8.02,18.22,12.97,26.76Zm-15.41-33.3c-69.67,4.39-124.83,62.28-124.83,133.06,0,1.85,.05,3.69,.12,5.52-8.72-2.09-17.66-3.62-26.78-4.52,0-.33-.01-.66-.01-.99,0-83.02,63.23-151.27,144.17-159.22,1.86,8.96,4.32,17.69,7.33,26.16h0Zm-11.33-59.28c.34,9.01,1.27,17.86,2.76,26.52-84.03,8.55-149.59,79.52-149.59,165.8,0,100.08-76.04,182.39-173.49,192.33-.34-9.01-1.27-17.86-2.76-26.52,84.03-8.55,149.59-79.52,149.59-165.8,0-100.08,76.04-182.39,173.49-192.33h0Zm-180.17,191.33c0,.33,.01,.66,.01,.99,0,83.02-63.23,151.27-144.17,159.22-1.86-8.96-4.32-17.69-7.33-26.16,69.67-4.39,124.83-62.28,124.83-133.06,0-1.85-.05-3.69-.12-5.52,8.72,2.09,17.66,3.62,26.78,4.52h0Zm-33.53-6.26c.14,2.4,.21,4.82,.21,7.26,0,67.92-53.46,123.35-120.6,126.52-3.67-9.28-8.02-18.22-12.97-26.76,2.28,.16,4.58,.24,6.91,.24,55.23,0,100-44.77,100-100,0-5.91-.52-11.69-1.5-17.31,8.99,4.01,18.32,7.38,27.95,10.05h0Zm-35.47-13.61c1.53,6.71,2.34,13.69,2.34,20.87,0,51.55-41.79,93.33-93.33,93.33-3.8,0-7.54-.23-11.22-.67-19.5-30.6-47.1-55.53-79.77-71.79-1.53-6.71-2.34-13.69-2.34-20.87,0-51.55,41.79-93.33,93.33-93.33,3.8,0,7.54,.23,11.22,.67,19.5,30.6,47.1,55.53,79.77,71.79Zm-84.08-78.89c-2.28-.16-4.58-.24-6.91-.24-55.23,0-100,44.77-100,100,0,5.91,.52,11.69,1.5,17.31-8.99-4.01-18.32-7.38-27.95-10.05-.14-2.4-.21-4.82-.21-7.26,0-67.92,53.46-123.35,120.6-126.52,3.67,9.28,8.02,18.22,12.97,26.76Zm-22.74-59.46c1.86,8.96,4.32,17.69,7.33,26.16-69.67,4.39-124.83,62.28-124.83,133.06,0,1.85,.05,3.69,.12,5.52-8.72-2.09-17.66-3.62-26.78-4.52,0-.33-.01-.66-.01-.99,0-83.02,63.23-151.27,144.17-159.22h0Zm-30.95,364.71c.07-1.83,.12-3.66,.12-5.5,0-70.78-55.15-128.66-124.82-133.06,3.01-8.47,5.46-17.21,7.31-26.17,80.94,7.95,144.17,76.2,144.17,159.22,0,.33,0,.66,0,1-9.12,.91-18.06,2.42-26.78,4.51h0Zm30.95,35.28c1.86,8.96,4.32,17.69,7.33,26.16-69.67,4.39-124.83,62.28-124.83,133.06,0,1.85,.05,3.69,.12,5.52-8.72-2.09-17.66-3.62-26.78-4.52,0-.33-.01-.66-.01-.99,0-83.02,63.23-151.27,144.17-159.22h0Zm-30.95,364.71c.07-1.83,.12-3.66,.12-5.5,0-70.78-55.15-128.66-124.82-133.06,3.01-8.47,5.46-17.21,7.31-26.17,80.94,7.95,144.17,76.2,144.17,159.22,0,.33,0,.66,0,1-9.12,.91-18.06,2.42-26.78,4.51h0ZM20.01,1000.99c0-.33-.01-.66-.01-.99,0-83.02,63.23-151.27,144.17-159.22,1.86,8.96,4.32,17.69,7.33,26.16-69.67,4.39-124.83,62.28-124.83,133.06,0,1.85,.05,3.69,.12,5.52-8.72-2.09-17.66-3.62-26.78-4.52h0Zm33.53,6.26c-.14-2.4-.21-4.82-.21-7.26,0-67.92,53.46-123.35,120.6-126.52,3.67,9.28,8.02,18.22,12.97,26.76-2.28-.16-4.58-.24-6.91-.24-55.23,0-100,44.77-100,100,0,5.91,.52,11.69,1.5,17.31-8.99-4.02-18.32-7.38-27.95-10.05h0Zm35.47,13.61c-1.53-6.71-2.34-13.69-2.34-20.87,0-51.55,41.79-93.33,93.33-93.33,3.8,0,7.54,.23,11.22,.67,19.5,30.6,47.1,55.53,79.77,71.79,1.53,6.71,2.34,13.69,2.34,20.87,0,51.55-41.79,93.33-93.33,93.33-3.8,0-7.54-.23-11.22-.67-19.5-30.6-47.1-55.53-79.77-71.79h0Zm84.08,78.89c2.28,.16,4.58,.24,6.91,.24,55.23,0,100-44.77,100-100,0-5.91-.52-11.69-1.5-17.31,8.99,4.02,18.32,7.38,27.95,10.05,.14,2.4,.21,4.82,.21,7.26,0,67.92-53.46,123.35-120.6,126.52-3.67-9.28-8.02-18.22-12.97-26.76Zm15.41,33.3c69.67-4.39,124.83-62.28,124.83-133.06,0-1.85-.05-3.69-.12-5.52,8.72,2.09,17.66,3.62,26.78,4.52,0,.33,.01,.66,.01,.99,0,83.02-63.23,151.27-144.17,159.22-1.86-8.96-4.32-17.69-7.33-26.16h0Zm11.33,59.28c-.34-9.01-1.27-17.86-2.76-26.52,84.03-8.55,149.59-79.52,149.59-165.8,0-100.08,76.04-182.39,173.49-192.33,.34,9.01,1.27,17.86,2.76,26.52-84.03,8.55-149.59,79.52-149.59,165.8,0,100.08-76.04,182.39-173.49,192.33h0Zm180.17-191.33c0-.33-.01-.66-.01-.99,0-83.02,63.23-151.27,144.17-159.22,1.86,8.96,4.32,17.69,7.33,26.16-69.67,4.39-124.83,62.28-124.83,133.06,0,1.85,.05,3.69,.12,5.52-8.72-2.09-17.66-3.62-26.78-4.52h0Zm33.53,6.26c-.14-2.4-.21-4.82-.21-7.26,0-67.92,53.46-123.35,120.6-126.52,3.67,9.28,8.02,18.22,12.97,26.76-2.28-.16-4.58-.24-6.91-.24-55.23,0-100,44.77-100,100,0,5.91,.52,11.69,1.5,17.31-8.99-4.02-18.32-7.38-27.95-10.05h0Zm35.47,13.61c-1.53-6.71-2.34-13.69-2.34-20.87,0-51.55,41.79-93.33,93.33-93.33,3.8,0,7.54,.23,11.22,.67,19.5,30.6,47.1,55.53,79.77,71.79,1.53,6.71,2.34,13.69,2.34,20.87,0,51.55-41.79,93.33-93.33,93.33-3.8,0-7.54-.23-11.22-.67-19.5-30.6-47.1-55.53-79.77-71.79h0Zm84.08,78.89c2.28,.16,4.58,.24,6.91,.24,55.23,0,100-44.77,100-100,0-5.91-.52-11.69-1.5-17.31,8.99,4.02,18.32,7.38,27.95,10.05,.14,2.4,.21,4.82,.21,7.26,0,67.92-53.46,123.35-120.6,126.52-3.67-9.28-8.02-18.22-12.97-26.76h0Zm15.41,33.3c69.67-4.39,124.83-62.28,124.83-133.06,0-1.85-.05-3.69-.12-5.52,8.72,2.09,17.66,3.62,26.78,4.52,0,.33,.01,.66,.01,.99,0,83.02-63.23,151.27-144.17,159.22-1.86-8.96-4.32-17.69-7.33-26.16h0Zm11.33,59.28c-.34-9.01-1.27-17.86-2.76-26.52,84.03-8.55,149.59-79.52,149.59-165.8,0-100.08,76.04-182.39,173.49-192.33,.34,9.01,1.27,17.86,2.76,26.52-84.03,8.55-149.59,79.52-149.59,165.8,0,100.08-76.04,182.39-173.49,192.33h0Zm180.17-191.33c0-.33-.01-.66-.01-.99,0-83.02,63.23-151.27,144.17-159.22,1.86,8.96,4.32,17.69,7.33,26.16-69.67,4.39-124.83,62.28-124.83,133.06,0,1.85,.05,3.69,.12,5.52-8.72-2.09-17.66-3.62-26.78-4.52h0Zm33.53,6.26c-.14-2.4-.21-4.82-.21-7.26,0-67.92,53.46-123.35,120.6-126.52,3.67,9.28,8.02,18.22,12.97,26.76-2.28-.16-4.58-.24-6.91-.24-55.23,0-100,44.77-100,100,0,5.91,.52,11.69,1.5,17.31-8.99-4.02-18.32-7.38-27.95-10.05h0Zm35.47,13.61c-1.53-6.71-2.34-13.69-2.34-20.87,0-51.55,41.79-93.33,93.33-93.33,3.8,0,7.54,.23,11.22,.67,19.5,30.6,47.1,55.53,79.77,71.79,1.53,6.71,2.34,13.69,2.34,20.87,0,51.55-41.79,93.33-93.33,93.33-3.8,0-7.54-.23-11.22-.67-19.5-30.6-47.1-55.53-79.77-71.79h0Zm84.08,78.89c2.28,.16,4.58,.24,6.91,.24,55.23,0,100-44.77,100-100,0-5.91-.52-11.69-1.5-17.31,8.99,4.02,18.32,7.38,27.95,10.05,.14,2.4,.21,4.82,.21,7.26,0,67.92-53.46,123.35-120.6,126.52-3.67-9.28-8.02-18.22-12.97-26.76h0Zm15.41,33.3c69.67-4.39,124.83-62.28,124.83-133.06,0-1.85-.05-3.69-.12-5.52,8.72,2.09,17.66,3.62,26.78,4.52,0,.33,.01,.66,.01,.99,0,83.02-63.23,151.27-144.17,159.22-1.86-8.96-4.32-17.69-7.33-26.16h0Zm11.33,59.28c-.34-9.01-1.27-17.86-2.76-26.52,84.03-8.55,149.59-79.52,149.59-165.8,0-100.08,76.04-182.39,173.49-192.33,.34,9.01,1.27,17.86,2.76,26.52-84.03,8.55-149.59,79.52-149.59,165.8,0,100.08-76.04,182.39-173.49,192.33h0Zm180.17-191.33c0-.33-.01-.66-.01-.99,0-83.02,63.23-151.27,144.17-159.22,1.86,8.96,4.32,17.69,7.33,26.16-69.67,4.39-124.83,62.28-124.83,133.06,0,1.85,.05,3.69,.12,5.52-8.72-2.09-17.66-3.62-26.78-4.52h0Zm33.53,6.26c-.14-2.4-.21-4.82-.21-7.26,0-67.92,53.46-123.35,120.6-126.52,3.67,9.28,8.02,18.22,12.97,26.76-2.28-.16-4.58-.24-6.91-.24-55.23,0-100,44.77-100,100,0,5.91,.52,11.69,1.5,17.31-8.99-4.02-18.32-7.38-27.95-10.05Zm35.47,13.61c-1.53-6.71-2.34-13.69-2.34-20.87,0-51.55,41.79-93.33,93.33-93.33,3.8,0,7.54,.23,11.22,.67,19.5,30.6,47.1,55.53,79.77,71.79,1.53,6.71,2.34,13.69,2.34,20.87,0,51.55-41.79,93.33-93.33,93.33-3.8,0-7.54-.23-11.22-.67-19.5-30.6-47.1-55.53-79.77-71.79h0Zm84.08,78.89c2.28,.16,4.58,.24,6.91,.24,55.23,0,100-44.77,100-100,0-5.91-.52-11.69-1.5-17.31,8.99,4.02,18.32,7.38,27.95,10.05,.14,2.4,.21,4.82,.21,7.26,0,67.92-53.46,123.35-120.6,126.52-3.67-9.28-8.02-18.22-12.97-26.76Zm15.41,33.3c69.67-4.39,124.83-62.28,124.83-133.06,0-1.85-.05-3.69-.12-5.52,8.72,2.09,17.66,3.62,26.78,4.52,0,.33,.01,.66,.01,.99,0,83.02-63.23,151.27-144.17,159.22-1.86-8.96-4.32-17.69-7.33-26.16h0Zm11.33,59.28c-.34-9.01-1.27-17.86-2.76-26.52,84.03-8.55,149.59-79.52,149.59-165.8,0-100.08,76.04-182.39,173.49-192.33,.34,9.01,1.27,17.86,2.76,26.52-84.03,8.55-149.59,79.52-149.59,165.8,0,100.08-76.04,182.39-173.49,192.33Zm180.17-191.33c0-.33-.01-.66-.01-.99,0-83.02,63.23-151.27,144.17-159.22,1.86,8.96,4.32,17.69,7.33,26.16-69.67,4.39-124.83,62.28-124.83,133.06,0,1.85,.05,3.69,.12,5.52-8.72-2.09-17.66-3.62-26.78-4.52h0Zm33.53,6.26c-.14-2.4-.21-4.82-.21-7.26,0-67.92,53.46-123.35,120.6-126.52,3.67,9.28,8.02,18.22,12.97,26.76-2.28-.16-4.58-.24-6.91-.24-55.23,0-100,44.77-100,100,0,5.91,.52,11.69,1.5,17.31-8.99-4.02-18.32-7.38-27.95-10.05Zm35.47,13.61c-1.53-6.71-2.34-13.69-2.34-20.87,0-51.55,41.79-93.33,93.33-93.33,3.8,0,7.54,.23,11.22,.67,19.5,30.6,47.1,55.53,79.77,71.79,1.53,6.71,2.34,13.69,2.34,20.87,0,51.55-41.79,93.33-93.33,93.33-3.8,0-7.54-.23-11.22-.67-19.5-30.6-47.1-55.53-79.77-71.79h0Zm84.08,78.89c2.28,.16,4.58,.24,6.91,.24,55.23,0,100-44.77,100-100,0-5.91-.52-11.69-1.5-17.31,8.99,4.02,18.32,7.38,27.95,10.05,.14,2.4,.21,4.82,.21,7.26,0,67.92-53.46,123.35-120.6,126.52-3.67-9.28-8.02-18.22-12.97-26.76Zm15.41,33.3c69.67-4.39,124.83-62.28,124.83-133.06,0-1.85-.05-3.69-.12-5.52,8.72,2.09,17.66,3.62,26.78,4.52,0,.33,.01,.66,.01,.99,0,83.02-63.23,151.27-144.17,159.22-1.86-8.96-4.32-17.69-7.33-26.16h0Zm11.33,59.28c-.34-9.01-1.27-17.86-2.76-26.52,84.03-8.55,149.59-79.52,149.59-165.8,0-100.08,76.04-182.39,173.49-192.33,.34,9.01,1.27,17.86,2.76,26.52-84.03,8.55-149.59,79.52-149.59,165.8,0,100.08-76.04,182.39-173.49,192.33Zm180.17-191.33c0-.33-.01-.66-.01-.99,0-83.02,63.23-151.27,144.17-159.22,1.86,8.96,4.32,17.69,7.33,26.16-69.67,4.39-124.83,62.28-124.83,133.06,0,1.85,.05,3.69,.12,5.52-8.72-2.09-17.66-3.62-26.78-4.52h0Zm33.53,6.26c-.14-2.4-.21-4.82-.21-7.26,0-67.92,53.46-123.35,120.6-126.52,3.67,9.28,8.02,18.22,12.97,26.76-2.28-.16-4.58-.24-6.91-.24-55.23,0-100,44.77-100,100,0,5.91,.52,11.69,1.5,17.31-8.99-4.02-18.32-7.38-27.95-10.05Zm35.47,13.61c-1.53-6.71-2.34-13.69-2.34-20.87,0-51.55,41.79-93.33,93.33-93.33,3.8,0,7.54,.23,11.22,.67,19.5,30.6,47.1,55.53,79.77,71.79,1.53,6.71,2.34,13.69,2.34,20.87,0,51.55-41.79,93.33-93.33,93.33-3.8,0-7.54-.23-11.22-.67-19.5-30.6-47.1-55.53-79.77-71.79h0Zm84.08,78.89c2.28,.16,4.58,.24,6.91,.24,55.23,0,100-44.77,100-100,0-5.91-.52-11.69-1.5-17.31,8.99,4.02,18.32,7.38,27.95,10.05,.14,2.4,.21,4.82,.21,7.26,0,67.92-53.46,123.35-120.6,126.52-3.67-9.28-8.02-18.22-12.97-26.76Zm22.74,59.46c-1.86-8.96-4.32-17.69-7.33-26.16,69.67-4.39,124.83-62.28,124.83-133.06,0-1.85-.05-3.69-.12-5.52,8.72,2.09,17.66,3.62,26.78,4.52,0,.33,.01,.66,.01,.99,0,83.02-63.23,151.27-144.17,159.22h0Zm30.95-364.71c-.07,1.83-.12,3.66-.12,5.5,0,70.78,55.15,128.66,124.82,133.06-3.01,8.47-5.46,17.21-7.31,26.17-80.94-7.95-144.17-76.2-144.17-159.22,0-.33,.01-.66,.01-1,9.12-.91,18.06-2.42,26.78-4.51h-.01Zm-30.95-35.28c-1.86-8.96-4.32-17.69-7.33-26.16,69.67-4.39,124.83-62.28,124.83-133.06,0-1.85-.05-3.69-.12-5.52,8.72,2.09,17.66,3.62,26.78,4.52,0,.33,.01,.66,.01,.99,0,83.02-63.23,151.27-144.17,159.22h0Zm30.95-364.71c-.07,1.83-.12,3.66-.12,5.5,0,70.78,55.15,128.66,124.82,133.06-3.01,8.47-5.46,17.21-7.31,26.17-80.94-7.95-144.17-76.2-144.17-159.22,0-.33,.01-.66,.01-1,9.12-.91,18.06-2.42,26.78-4.51h-.01Zm-30.95-35.28c-1.86-8.96-4.32-17.69-7.33-26.16,69.67-4.39,124.83-62.28,124.83-133.06,0-1.85-.05-3.69-.12-5.52,8.72,2.09,17.66,3.62,26.78,4.52,0,.33,.01,.66,.01,.99,0,83.02-63.23,151.27-144.17,159.22h0Z" fill="#04364f"/><path d="M2093.33,400c0,36.82,29.85,66.67,66.67,66.67v-6.67c-33.14,0-60-26.86-60-60s26.86-60,60-60v-6.67c-36.82,0-66.67,29.85-66.67,66.67h0Z" fill="#04364f"/><path d="M2126.67,400c0,18.41,14.92,33.33,33.33,33.33v-6.67c-14.73,0-26.67-11.94-26.67-26.67s11.94-26.67,26.67-26.67v-6.67c-18.41,0-33.33,14.92-33.33,33.33v.02Z" fill="#04364f"/><path d="M1733.33,400c0,36.82,29.85,66.67,66.67,66.67s66.67-29.85,66.67-66.67-29.85-66.67-66.67-66.67-66.67,29.85-66.67,66.67Zm66.67-60c33.14,0,60,26.86,60,60s-26.86,60-60,60-60-26.86-60-60,26.86-60,60-60Z" fill="#04364f"/><path d="M1373.33,400c0,36.82,29.85,66.67,66.67,66.67s66.67-29.85,66.67-66.67-29.85-66.67-66.67-66.67-66.67,29.85-66.67,66.67Zm66.67-60c33.14,0,60,26.86,60,60s-26.86,60-60,60-60-26.86-60-60,26.86-60,60-60Z" fill="#04364f"/><path d="M1013.33,400c0,36.82,29.85,66.67,66.67,66.67s66.67-29.85,66.67-66.67-29.85-66.67-66.67-66.67-66.67,29.85-66.67,66.67Zm66.67-60c33.14,0,60,26.86,60,60s-26.86,60-60,60-60-26.86-60-60,26.86-60,60-60Z" fill="#04364f"/><path d="M653.33,400c0,36.82,29.85,66.67,66.67,66.67s66.67-29.85,66.67-66.67-29.85-66.67-66.67-66.67-66.67,29.85-66.67,66.67Zm66.67-60c33.14,0,60,26.86,60,60s-26.86,60-60,60-60-26.86-60-60,26.86-60,60-60Z" fill="#04364f"/><path d="M293.33,400c0,36.82,29.85,66.67,66.67,66.67s66.67-29.85,66.67-66.67-29.85-66.67-66.67-66.67-66.67,29.85-66.67,66.67h0Zm66.67-60c33.14,0,60,26.86,60,60s-26.86,60-60,60-60-26.86-60-60,26.86-60,60-60Z" fill="#04364f"/><path d="M66.67,400c0-36.82-29.85-66.67-66.67-66.67v6.67c33.14,0,60,26.86,60,60s-26.86,60-60,60v6.67c36.82,0,66.67-29.85,66.67-66.67h0Z" fill="#04364f"/><path d="M33.33,400c0-18.41-14.92-33.33-33.33-33.33v6.67c14.73,0,26.67,11.94,26.67,26.67s-11.94,26.67-26.67,26.67v6.67c18.41,0,33.33-14.92,33.33-33.33v-.02Z" fill="#04364f"/><path d="M360,433.33c18.41,0,33.33-14.92,33.33-33.33s-14.92-33.33-33.33-33.33-33.33,14.92-33.33,33.33,14.92,33.33,33.33,33.33h0Zm0-60c14.73,0,26.67,11.94,26.67,26.67s-11.94,26.67-26.67,26.67-26.67-11.94-26.67-26.67,11.94-26.67,26.67-26.67Z" fill="#04364f"/><path d="M720,433.33c18.41,0,33.33-14.92,33.33-33.33s-14.92-33.33-33.33-33.33-33.33,14.92-33.33,33.33,14.92,33.33,33.33,33.33h0Zm0-60c14.73,0,26.67,11.94,26.67,26.67s-11.94,26.67-26.67,26.67-26.67-11.94-26.67-26.67,11.94-26.67,26.67-26.67Z" fill="#04364f"/><path d="M1080,433.33c18.41,0,33.33-14.92,33.33-33.33s-14.92-33.33-33.33-33.33-33.33,14.92-33.33,33.33,14.92,33.33,33.33,33.33h0Zm0-60c14.73,0,26.67,11.94,26.67,26.67s-11.94,26.67-26.67,26.67-26.67-11.94-26.67-26.67,11.94-26.67,26.67-26.67Z" fill="#04364f"/><path d="M1440,433.33c18.41,0,33.33-14.92,33.33-33.33s-14.92-33.33-33.33-33.33-33.33,14.92-33.33,33.33,14.92,33.33,33.33,33.33h0Zm0-60c14.73,0,26.67,11.94,26.67,26.67s-11.94,26.67-26.67,26.67-26.67-11.94-26.67-26.67,11.94-26.67,26.67-26.67Z" fill="#04364f"/><path d="M1800,433.33c18.41,0,33.33-14.92,33.33-33.33s-14.92-33.33-33.33-33.33-33.33,14.92-33.33,33.33,14.92,33.33,33.33,33.33h0Zm0-60c14.73,0,26.67,11.94,26.67,26.67s-11.94,26.67-26.67,26.67-26.67-11.94-26.67-26.67,11.94-26.67,26.67-26.67Z" fill="#04364f"/><path d="M1913.33,600c0,36.82,29.85,66.67,66.67,66.67s66.67-29.85,66.67-66.67-29.85-66.67-66.67-66.67-66.67,29.85-66.67,66.67Zm126.67,0c0,33.14-26.86,60-60,60s-60-26.86-60-60,26.86-60,60-60,60,26.86,60,60Z" fill="#04364f"/><path d="M1946.67,600c0,18.41,14.92,33.33,33.33,33.33s33.33-14.92,33.33-33.33-14.92-33.33-33.33-33.33-33.33,14.92-33.33,33.33Zm60,0c0,14.73-11.94,26.67-26.67,26.67s-26.67-11.94-26.67-26.67,11.94-26.67,26.67-26.67,26.67,11.94,26.67,26.67Z" fill="#04364f"/><path d="M2093.33,800c0,36.82,29.85,66.67,66.67,66.67v-6.67c-33.14,0-60-26.86-60-60s26.86-60,60-60v-6.67c-36.82,0-66.67,29.85-66.67,66.67Z" fill="#04364f"/><path d="M2126.67,800c0,18.41,14.92,33.33,33.33,33.33v-6.67c-14.73,0-26.67-11.94-26.67-26.67s11.94-26.67,26.67-26.67v-6.67c-18.41,0-33.33,14.92-33.33,33.33v.02Z" fill="#04364f"/><path d="M1800,766.67c-18.41,0-33.33,14.92-33.33,33.33s14.92,33.33,33.33,33.33,33.33-14.92,33.33-33.33-14.92-33.33-33.33-33.33Zm0,60c-14.73,0-26.67-11.94-26.67-26.67s11.94-26.67,26.67-26.67,26.67,11.94,26.67,26.67-11.94,26.67-26.67,26.67Z" fill="#04364f"/><path d="M1686.67,600c0-36.82-29.85-66.67-66.67-66.67s-66.67,29.85-66.67,66.67,29.85,66.67,66.67,66.67,66.67-29.85,66.67-66.67Zm-126.67,0c0-33.14,26.86-60,60-60s60,26.86,60,60-26.86,60-60,60-60-26.86-60-60Z" fill="#04364f"/><path d="M1653.33,600c0-18.41-14.92-33.33-33.33-33.33s-33.33,14.92-33.33,33.33,14.92,33.33,33.33,33.33,33.33-14.92,33.33-33.33Zm-60,0c0-14.73,11.94-26.67,26.67-26.67s26.67,11.94,26.67,26.67-11.94,26.67-26.67,26.67-26.67-11.94-26.67-26.67Z" fill="#04364f"/><path d="M1440,766.67c-18.41,0-33.33,14.92-33.33,33.33s14.92,33.33,33.33,33.33,33.33-14.92,33.33-33.33-14.92-33.33-33.33-33.33Zm0,60c-14.73,0-26.67-11.94-26.67-26.67s11.94-26.67,26.67-26.67,26.67,11.94,26.67,26.67-11.94,26.67-26.67,26.67Z" fill="#04364f"/><path d="M1326.67,600c0-36.82-29.85-66.67-66.67-66.67s-66.67,29.85-66.67,66.67,29.85,66.67,66.67,66.67,66.67-29.85,66.67-66.67Zm-126.67,0c0-33.14,26.86-60,60-60s60,26.86,60,60-26.86,60-60,60-60-26.86-60-60Z" fill="#04364f"/><path d="M1293.33,600c0-18.41-14.92-33.33-33.33-33.33s-33.33,14.92-33.33,33.33,14.92,33.33,33.33,33.33,33.33-14.92,33.33-33.33Zm-60,0c0-14.73,11.94-26.67,26.67-26.67s26.67,11.94,26.67,26.67-11.94,26.67-26.67,26.67-26.67-11.94-26.67-26.67Z" fill="#04364f"/><path d="M1080,766.67c-18.41,0-33.33,14.92-33.33,33.33s14.92,33.33,33.33,33.33,33.33-14.92,33.33-33.33-14.92-33.33-33.33-33.33Zm0,60c-14.73,0-26.67-11.94-26.67-26.67s11.94-26.67,26.67-26.67,26.67,11.94,26.67,26.67-11.94,26.67-26.67,26.67Z" fill="#04364f"/><path d="M966.67,600c0-36.82-29.85-66.67-66.67-66.67s-66.67,29.85-66.67,66.67,29.85,66.67,66.67,66.67,66.67-29.85,66.67-66.67Zm-126.67,0c0-33.14,26.86-60,60-60s60,26.86,60,60-26.86,60-60,60-60-26.86-60-60Z" fill="#04364f"/><path d="M933.33,600c0-18.41-14.92-33.33-33.33-33.33s-33.33,14.92-33.33,33.33,14.92,33.33,33.33,33.33,33.33-14.92,33.33-33.33Zm-60,0c0-14.73,11.94-26.67,26.67-26.67s26.67,11.94,26.67,26.67-11.94,26.67-26.67,26.67-26.67-11.94-26.67-26.67Z" fill="#04364f"/><path d="M720,766.67c-18.41,0-33.33,14.92-33.33,33.33s14.92,33.33,33.33,33.33,33.33-14.92,33.33-33.33-14.92-33.33-33.33-33.33Zm0,60c-14.73,0-26.67-11.94-26.67-26.67s11.94-26.67,26.67-26.67,26.67,11.94,26.67,26.67-11.94,26.67-26.67,26.67Z" fill="#04364f"/><path d="M606.67,600c0-36.82-29.85-66.67-66.67-66.67s-66.67,29.85-66.67,66.67,29.85,66.67,66.67,66.67,66.67-29.85,66.67-66.67Zm-126.67,0c0-33.14,26.86-60,60-60s60,26.86,60,60-26.86,60-60,60-60-26.86-60-60Z" fill="#04364f"/><path d="M573.33,600c0-18.41-14.92-33.33-33.33-33.33s-33.33,14.92-33.33,33.33,14.92,33.33,33.33,33.33,33.33-14.92,33.33-33.33Zm-60,0c0-14.73,11.94-26.67,26.67-26.67s26.67,11.94,26.67,26.67-11.94,26.67-26.67,26.67-26.67-11.94-26.67-26.67Z" fill="#04364f"/><path d="M360,766.67c-18.41,0-33.33,14.92-33.33,33.33s14.92,33.33,33.33,33.33,33.33-14.92,33.33-33.33-14.92-33.33-33.33-33.33Zm0,60c-14.73,0-26.67-11.94-26.67-26.67s11.94-26.67,26.67-26.67,26.67,11.94,26.67,26.67-11.94,26.67-26.67,26.67Z" fill="#04364f"/><path d="M246.67,600c0-36.82-29.85-66.67-66.67-66.67s-66.67,29.85-66.67,66.67,29.85,66.67,66.67,66.67,66.67-29.85,66.67-66.67Zm-126.67,0c0-33.14,26.86-60,60-60s60,26.86,60,60-26.86,60-60,60-60-26.86-60-60Z" fill="#04364f"/><path d="M213.33,600c0-18.41-14.92-33.33-33.33-33.33s-33.33,14.92-33.33,33.33,14.92,33.33,33.33,33.33,33.33-14.92,33.33-33.33Zm-60,0c0-14.73,11.94-26.67,26.67-26.67s26.67,11.94,26.67,26.67-11.94,26.67-26.67,26.67-26.67-11.94-26.67-26.67Z" fill="#04364f"/><path d="M66.67,800c0-36.82-29.85-66.67-66.67-66.67v6.67c33.14,0,60,26.86,60,60s-26.86,60-60,60v6.67c36.82,0,66.67-29.85,66.67-66.67Z" fill="#04364f"/><path d="M33.33,800c0-18.41-14.92-33.33-33.33-33.33v6.67c14.73,0,26.67,11.94,26.67,26.67s-11.94,26.67-26.67,26.67v6.67c18.41,0,33.33-14.92,33.33-33.33v-.02Z" fill="#04364f"/><path d="M426.67,800c0-36.82-29.85-66.67-66.67-66.67s-66.67,29.85-66.67,66.67,29.85,66.67,66.67,66.67,66.67-29.85,66.67-66.67h0Zm-66.67,60c-33.14,0-60-26.86-60-60s26.86-60,60-60,60,26.86,60,60-26.86,60-60,60Z" fill="#04364f"/><path d="M786.67,800c0-36.82-29.85-66.67-66.67-66.67s-66.67,29.85-66.67,66.67,29.85,66.67,66.67,66.67,66.67-29.85,66.67-66.67Zm-66.67,60c-33.14,0-60-26.86-60-60s26.86-60,60-60,60,26.86,60,60-26.86,60-60,60Z" fill="#04364f"/><path d="M1146.67,800c0-36.82-29.85-66.67-66.67-66.67s-66.67,29.85-66.67,66.67,29.85,66.67,66.67,66.67,66.67-29.85,66.67-66.67Zm-66.67,60c-33.14,0-60-26.86-60-60s26.86-60,60-60,60,26.86,60,60-26.86,60-60,60Z" fill="#04364f"/><path d="M1506.67,800c0-36.82-29.85-66.67-66.67-66.67s-66.67,29.85-66.67,66.67,29.85,66.67,66.67,66.67,66.67-29.85,66.67-66.67Zm-66.67,60c-33.14,0-60-26.86-60-60s26.86-60,60-60,60,26.86,60,60-26.86,60-60,60Z" fill="#04364f"/><path d="M1866.67,800c0-36.82-29.85-66.67-66.67-66.67s-66.67,29.85-66.67,66.67,29.85,66.67,66.67,66.67,66.67-29.85,66.67-66.67Zm-66.67,60c-33.14,0-60-26.86-60-60s26.86-60,60-60,60,26.86,60,60-26.86,60-60,60Z" fill="#04364f"/><path d="M2093.33,1200h6.67c0-33.14,26.86-60,60-60v-6.67c-36.82,0-66.67,29.85-66.67,66.67Z" fill="#04364f"/><path d="M2126.67,1200h6.67c0-14.73,11.94-26.67,26.67-26.67v-6.67c-18.41,0-33.33,14.92-33.33,33.33h0Z" fill="#04364f"/><path d="M2046.67,1000c0-36.82-29.85-66.67-66.67-66.67s-66.67,29.85-66.67,66.67,29.85,66.67,66.67,66.67,66.67-29.85,66.67-66.67h0Zm-126.67,0c0-33.14,26.86-60,60-60s60,26.86,60,60-26.86,60-60,60-60-26.86-60-60Z" fill="#04364f"/><path d="M2013.33,1000c0-18.41-14.92-33.33-33.33-33.33s-33.33,14.92-33.33,33.33,14.92,33.33,33.33,33.33,33.33-14.92,33.33-33.33h0Zm-60,0c0-14.73,11.94-26.67,26.67-26.67s26.67,11.94,26.67,26.67-11.94,26.67-26.67,26.67-26.67-11.94-26.67-26.67h0Z" fill="#04364f"/><path d="M1800,1133.33c-36.82,0-66.67,29.85-66.67,66.67h6.67c0-33.14,26.86-60,60-60s60,26.86,60,60h6.67c0-36.82-29.85-66.67-66.67-66.67Z" fill="#04364f"/><path d="M1800,1166.67c-18.41,0-33.33,14.92-33.33,33.33h6.67c0-14.73,11.94-26.67,26.67-26.67s26.67,11.94,26.67,26.67h6.67c0-18.41-14.92-33.33-33.33-33.33h-.02Z" fill="#04364f"/><path d="M1686.67,1000c0-36.82-29.85-66.67-66.67-66.67s-66.67,29.85-66.67,66.67,29.85,66.67,66.67,66.67,66.67-29.85,66.67-66.67h0Zm-126.67,0c0-33.14,26.86-60,60-60s60,26.86,60,60-26.86,60-60,60-60-26.86-60-60Z" fill="#04364f"/><path d="M1653.33,1000c0-18.41-14.92-33.33-33.33-33.33s-33.33,14.92-33.33,33.33,14.92,33.33,33.33,33.33,33.33-14.92,33.33-33.33h0Zm-60,0c0-14.73,11.94-26.67,26.67-26.67s26.67,11.94,26.67,26.67-11.94,26.67-26.67,26.67-26.67-11.94-26.67-26.67h0Z" fill="#04364f"/><path d="M1440,1133.33c-36.82,0-66.67,29.85-66.67,66.67h6.67c0-33.14,26.86-60,60-60s60,26.86,60,60h6.67c0-36.82-29.85-66.67-66.67-66.67Z" fill="#04364f"/><path d="M1440,1166.67c-18.41,0-33.33,14.92-33.33,33.33h6.67c0-14.73,11.94-26.67,26.67-26.67s26.67,11.94,26.67,26.67h6.67c0-18.41-14.92-33.33-33.33-33.33h-.02Z" fill="#04364f"/><path d="M1326.67,1000c0-36.82-29.85-66.67-66.67-66.67s-66.67,29.85-66.67,66.67,29.85,66.67,66.67,66.67,66.67-29.85,66.67-66.67h0Zm-126.67,0c0-33.14,26.86-60,60-60s60,26.86,60,60-26.86,60-60,60-60-26.86-60-60Z" fill="#04364f"/><path d="M1293.33,1000c0-18.41-14.92-33.33-33.33-33.33s-33.33,14.92-33.33,33.33,14.92,33.33,33.33,33.33,33.33-14.92,33.33-33.33h0Zm-60,0c0-14.73,11.94-26.67,26.67-26.67s26.67,11.94,26.67,26.67-11.94,26.67-26.67,26.67-26.67-11.94-26.67-26.67h0Z" fill="#04364f"/><path d="M1080,1133.33c-36.82,0-66.67,29.85-66.67,66.67h6.67c0-33.14,26.86-60,60-60s60,26.86,60,60h6.67c0-36.82-29.85-66.67-66.67-66.67Z" fill="#04364f"/><path d="M1080,1166.67c-18.41,0-33.33,14.92-33.33,33.33h6.67c0-14.73,11.94-26.67,26.67-26.67s26.67,11.94,26.67,26.67h6.67c0-18.41-14.92-33.33-33.33-33.33h-.02Z" fill="#04364f"/><path d="M966.67,1000c0-36.82-29.85-66.67-66.67-66.67s-66.67,29.85-66.67,66.67,29.85,66.67,66.67,66.67,66.67-29.85,66.67-66.67h0Zm-126.67,0c0-33.14,26.86-60,60-60s60,26.86,60,60-26.86,60-60,60-60-26.86-60-60Z" fill="#04364f"/><path d="M933.33,1000c0-18.41-14.92-33.33-33.33-33.33s-33.33,14.92-33.33,33.33,14.92,33.33,33.33,33.33,33.33-14.92,33.33-33.33h0Zm-60,0c0-14.73,11.94-26.67,26.67-26.67s26.67,11.94,26.67,26.67-11.94,26.67-26.67,26.67-26.67-11.94-26.67-26.67h0Z" fill="#04364f"/><path d="M720,1133.33c-36.82,0-66.67,29.85-66.67,66.67h6.67c0-33.14,26.86-60,60-60s60,26.86,60,60h6.67c0-36.82-29.85-66.67-66.67-66.67Z" fill="#04364f"/><path d="M720,1166.67c-18.41,0-33.33,14.92-33.33,33.33h6.67c0-14.73,11.94-26.67,26.67-26.67s26.67,11.94,26.67,26.67h6.67c0-18.41-14.92-33.33-33.33-33.33h-.02Z" fill="#04364f"/><path d="M606.67,1000c0-36.82-29.85-66.67-66.67-66.67s-66.67,29.85-66.67,66.67,29.85,66.67,66.67,66.67,66.67-29.85,66.67-66.67h0Zm-126.67,0c0-33.14,26.86-60,60-60s60,26.86,60,60-26.86,60-60,60-60-26.86-60-60Z" fill="#04364f"/><path d="M573.33,1000c0-18.41-14.92-33.33-33.33-33.33s-33.33,14.92-33.33,33.33,14.92,33.33,33.33,33.33,33.33-14.92,33.33-33.33h0Zm-60,0c0-14.73,11.94-26.67,26.67-26.67s26.67,11.94,26.67,26.67-11.94,26.67-26.67,26.67-26.67-11.94-26.67-26.67h0Z" fill="#04364f"/><path d="M360,1133.33c-36.82,0-66.67,29.85-66.67,66.67h6.67c0-33.14,26.86-60,60-60s60,26.86,60,60h6.67c0-36.82-29.85-66.67-66.67-66.67h0Z" fill="#04364f"/><path d="M360,1166.67c-18.41,0-33.33,14.92-33.33,33.33h6.67c0-14.73,11.94-26.67,26.67-26.67s26.67,11.94,26.67,26.67h6.67c0-18.41-14.92-33.33-33.33-33.33h-.02Z" fill="#04364f"/><path d="M246.67,1000c0-36.82-29.85-66.67-66.67-66.67s-66.67,29.85-66.67,66.67,29.85,66.67,66.67,66.67,66.67-29.85,66.67-66.67h0Zm-126.67,0c0-33.14,26.86-60,60-60s60,26.86,60,60-26.86,60-60,60-60-26.86-60-60Z" fill="#04364f"/><path d="M213.33,1000c0-18.41-14.92-33.33-33.33-33.33s-33.33,14.92-33.33,33.33,14.92,33.33,33.33,33.33,33.33-14.92,33.33-33.33h0Zm-60,0c0-14.73,11.94-26.67,26.67-26.67s26.67,11.94,26.67,26.67-11.94,26.67-26.67,26.67-26.67-11.94-26.67-26.67h0Z" fill="#04364f"/><path d="M0,1100v6.67c51.55,0,93.33,41.79,93.33,93.33h6.67c0-55.23-44.77-100-100-100Z" fill="#04364f"/><path d="M0,1133.33v6.67c33.14,0,60,26.86,60,60h6.67c0-36.82-29.85-66.67-66.67-66.67Z" fill="#04364f"/><path d="M0,1166.67v6.67c14.73,0,26.67,11.94,26.67,26.67h6.67c0-18.41-14.92-33.33-33.33-33.33h0Z" fill="#04364f"/></svg>